<svg width="16.684" height="12.229" version="1.1" viewBox="0 -960 800.85 587" xmlns="http://www.w3.org/2000/svg">
 <path d="m399.83-373q-121.44 0-208.73-86.195-87.293-86.196-84.293-210.91v-0.239l-53.413 53.413-53.391-53.63 148.3-148.54 148.3 148.54-53.391 53.63-53.413-53.413v-0.478q-2 90.891 60.326 152.86 62.326 61.967 149.7 61.967 22.717 0 43.315-4.359 20.598-4.358 40.076-13.076l60.413 60.174q-31.674 18.392-67.804 29.326-36.131 10.935-76 10.935zm252.72-141.13-148.54-148.3 53.63-53.63 53.413 53.413v0.478q2-90.891-60.446-152.86-62.445-61.968-149.82-61.968-21.717 0-42.815 4.359t-40.576 13.076l-60.174-60.413q31.674-18.391 68.185-29.207 36.511-10.815 75.38-10.815 122.44 0 209.35 86.196 86.913 86.195 83.913 210.91v0.239l53.174-53.413 53.631 53.63z"></path>
</svg>