<svg width="60" height="56" viewBox="0 0 60 56" fill="none" xmlns="http://www.w3.org/2000/svg">
<path d="M60 30.324V28.952L59.9717 25.284V22.54C59.9435 18.788 57.7673 16.324 53.8389 15.568C53.1041 15.428 52.3128 15.344 51.4932 15.344C51.4084 15.344 51.3236 15.344 51.2106 15.344C52.0019 13.636 52.341 11.816 52.0867 10.08C51.8323 8.092 50.8149 6.384 49.2887 5.236C48.1583 4.424 46.6321 3.976 44.8799 3.976C42.9298 3.976 40.7819 4.536 38.8884 5.488C38.7471 5.236 38.6057 4.984 38.4644 4.76C36.5426 1.848 33.349 0 30.1554 0C28.6576 0 27.2445 0.42 26.0292 1.176C23.8248 2.604 22.5813 5.432 22.8073 8.288C22.9487 9.912 23.3443 11.9 23.8248 13.776L23.2313 13.832C22.9769 13.272 22.6943 12.712 22.3834 12.152C20.8008 8.316 17.3528 5.656 13.3679 5.656C8.87423 5.656 5.08714 8.96 3.87188 13.524C3.08055 13.692 2.23269 13.86 1.38483 14.028C0.536976 14.196 0 14.364 0 14.364L0.0847857 32.06C0.0847857 32.06 3.53274 31.22 4.1545 31.08L4.21102 44.436L5.935 44.1C7.06547 48.272 11.87 50.624 16.6745 49.392C17.0137 49.308 17.3528 49.196 17.6919 49.056C17.7767 49.308 17.8898 49.56 18.0028 49.784C19.6985 53.536 23.1182 55.972 26.7358 55.972C27.8097 55.972 28.8554 55.748 29.8446 55.3C32.1338 54.264 33.7447 51.912 34.0556 49.532C34.3665 47.18 33.9991 45.108 33.9991 45.108L36.6557 55.972H39.5101C39.5101 55.972 36.0904 46.396 34.9317 42.308C35.0165 42.476 36.8818 46.032 37.8144 47.208C41.5167 51.94 47.6213 53.396 51.4366 50.456C53.4998 48.888 54.4607 46.368 54.3476 43.624C54.7433 43.568 55.0824 43.512 55.3933 43.428L56.6651 43.036L56.6368 36.568C56.6368 35.868 56.5238 35.224 56.3542 34.636C57.1173 33.404 57.5695 32.116 57.7108 30.856C58.0782 30.828 58.3891 30.744 58.7 30.66L60 30.324Z" fill="#61AA37"/>
<path d="M37.5601 12.348C37.5601 13.412 37.5601 14.504 37.5884 15.568C38.1254 15.596 38.6623 15.624 39.1993 15.68C39.1993 16.52 39.1993 17.332 39.1993 18.172C38.6623 18.144 38.1254 18.088 37.5884 18.06C37.5884 19.796 37.6167 21.532 37.6167 23.24C37.6167 23.856 37.9558 24.164 38.4928 24.22C38.521 24.22 38.5776 24.22 38.6058 24.22C38.8319 24.22 39.0298 24.192 39.2276 24.136C39.2276 24.92 39.2276 25.732 39.2276 26.516C38.8884 26.684 38.3797 26.768 37.7297 26.768C37.5884 26.768 37.4753 26.768 37.334 26.768C34.9318 26.628 33.6883 25.284 33.66 23.072C33.66 21.336 33.6317 19.6 33.6317 17.892C33.2361 17.892 32.8687 17.864 32.473 17.864C32.473 17.024 32.473 16.212 32.473 15.372C32.8687 15.372 33.2361 15.4 33.6317 15.4C33.6317 14.644 33.6317 13.888 33.6317 13.16C34.9318 12.852 36.2601 12.6 37.5601 12.348ZM15.1485 13.3C15.1485 15.988 15.1767 18.648 15.1767 21.336H15.2332C16.1376 19.572 17.042 17.808 17.9464 16.044C19.3312 15.904 20.6878 15.792 22.0726 15.68C20.9421 17.472 19.8117 19.264 18.6812 21.084C19.9247 22.932 21.1965 24.78 22.44 26.656C20.9704 26.768 19.4725 26.88 18.0029 27.02C17.0985 25.368 16.1659 23.716 15.2615 22.092H15.2332C15.2332 23.828 15.2615 25.592 15.2615 27.328C13.9615 27.496 12.6614 27.664 11.3614 27.888C11.3331 23.212 11.3331 18.508 11.3048 13.832C12.5484 13.636 13.8484 13.468 15.1485 13.3ZM9.29824 14.196C9.29824 15.092 9.29824 15.988 9.29824 16.884C8.1395 17.08 6.98076 17.304 5.82203 17.556C5.82203 18.536 5.82203 19.488 5.82203 20.468C6.81119 20.272 7.82862 20.076 8.81779 19.88C8.81779 20.748 8.81779 21.644 8.81779 22.512C7.82862 22.68 6.81119 22.876 5.82203 23.1C5.82203 24.136 5.82203 25.172 5.82203 26.208C6.98076 25.956 8.1395 25.76 9.29824 25.536C9.29824 26.432 9.29824 27.328 9.29824 28.224C6.78293 28.672 4.29588 29.176 1.80884 29.792C1.8371 25.116 1.80884 20.44 1.80884 15.764C4.29588 15.148 6.78293 14.616 9.29824 14.196ZM27.5554 15.148C28.9403 15.148 29.9859 15.4 30.9751 15.96C30.6642 16.66 30.3534 17.36 30.0425 18.06C29.3642 17.696 28.7424 17.528 28.2054 17.528H28.1489C27.4141 17.556 26.9902 17.92 26.9902 18.424C26.9902 19.88 31.2295 19.488 31.2577 22.848C31.2577 25.032 29.5338 26.572 26.538 26.656C26.4249 26.656 26.3402 26.656 26.2271 26.656C24.9553 26.656 23.6553 26.404 22.8639 25.984C23.2031 25.172 23.5422 24.36 23.8814 23.548C24.6162 23.912 25.3227 24.08 25.888 24.08C25.9162 24.08 25.9445 24.08 25.9728 24.08C26.7076 24.052 27.188 23.66 27.1598 23.156C27.1598 21.644 23.0618 22.232 23.0618 18.872C23.0618 16.604 24.9553 15.176 27.188 15.12C27.3576 15.148 27.4706 15.148 27.5554 15.148ZM44.0321 15.988C44.6539 15.988 45.3604 16.044 46.1235 16.128C46.6605 16.184 47.3388 16.324 47.7627 16.436C47.5366 17.276 47.3105 18.144 47.0844 18.984C46.7453 18.732 46.2931 18.564 45.8974 18.536C45.7561 18.508 45.6148 18.508 45.5017 18.508C45.3322 18.508 45.1908 18.536 45.1343 18.536C45.1343 21.448 45.1626 24.36 45.1626 27.272C43.8625 27.104 42.5342 26.964 41.2342 26.852C41.2059 23.38 41.2059 19.908 41.1777 16.436C41.9407 16.156 42.8734 15.988 44.0321 15.988ZM51.4932 17.108C52.1433 17.108 52.8216 17.164 53.4998 17.304C56.3543 17.864 58.1631 19.432 58.1913 22.54C58.1913 24.668 58.2196 26.824 58.2196 28.952C57.7957 29.064 57.2587 29.12 56.5804 29.12C55.7325 29.12 54.7434 29.008 53.5846 28.784C50.1932 28.14 48.4127 26.712 48.4127 24.332C48.4127 22.12 50.2497 21.42 52.6802 21.42C53.2737 21.42 53.8955 21.448 54.5455 21.532C54.5455 21.392 54.5455 21.252 54.5455 21.112C54.5455 20.272 53.9803 19.796 52.8781 19.572C52.5107 19.516 52.1433 19.46 51.7476 19.46C51.0411 19.46 50.3345 19.572 49.8258 19.712C49.5432 18.928 49.2606 18.116 49.0062 17.332C49.7127 17.22 50.5606 17.108 51.4932 17.108ZM54.2629 26.768C54.376 26.768 54.489 26.768 54.5738 26.74C54.5738 25.592 54.5738 24.472 54.5455 23.324C54.3194 23.296 54.0933 23.296 53.8955 23.296C52.5955 23.296 52.0302 23.772 52.0302 24.808C52.0302 25.9 52.652 26.516 53.7259 26.712C53.9238 26.74 54.1216 26.768 54.2629 26.768ZM43.8625 27.748C43.9191 27.748 44.0038 27.748 44.0604 27.748C44.9648 27.86 45.6713 28.588 45.6996 29.344C45.6996 30.044 45.0778 30.576 44.2865 30.576C44.2299 30.576 44.1452 30.576 44.0886 30.576C43.1843 30.464 42.4777 29.764 42.4494 29.008C42.4494 28.28 43.0712 27.748 43.8625 27.748ZM10.994 29.988C13.3962 29.988 14.3571 31.388 14.3571 33.096C14.3571 35.224 12.9158 37.016 9.66564 37.576C9.52434 37.604 9.46781 37.604 9.12867 37.632C9.12867 38.976 9.12867 40.32 9.15693 41.664C8.11124 41.86 7.03729 42.056 5.9916 42.28C5.96334 38.696 5.96334 35.112 5.93507 31.5C6.89598 30.884 8.16776 30.38 9.66564 30.128C10.1461 30.044 10.5983 29.988 10.994 29.988ZM9.12867 35.812C9.49607 35.784 9.5526 35.784 9.66564 35.756C10.8244 35.56 11.2766 34.748 11.2766 33.572C11.2766 32.536 10.9374 31.92 10.0896 31.92C9.97653 31.92 9.83522 31.92 9.72217 31.948C9.49607 31.976 9.29824 32.06 9.12867 32.144C9.12867 33.348 9.12867 34.58 9.12867 35.812ZM29.025 30.8C31.9643 30.8 33.2361 32.032 33.2361 33.908C33.2361 35.868 33.2643 37.828 33.2643 39.788C32.3599 39.76 31.4556 39.76 30.5512 39.76C30.4099 39.76 30.2403 39.76 30.099 39.76C30.099 37.772 30.0707 35.812 30.0707 33.852C30.0707 33.096 29.7316 32.704 28.9403 32.704H28.912C28.6294 32.704 28.375 32.732 28.1489 32.844C28.1489 35.168 28.1772 37.492 28.1772 39.816C27.1315 39.844 26.0575 39.872 25.0119 39.928C25.0119 37.156 24.9836 34.384 24.9836 31.612C26.0858 31.108 27.3859 30.856 28.912 30.856C28.9403 30.8 28.9685 30.8 29.025 30.8ZM37.6732 30.968C36.0057 30.968 34.6492 31.948 34.6492 33.684C34.6492 36.4 37.9275 36.204 37.9275 37.436C37.9275 37.8 37.5884 38.08 37.0514 38.08C37.0232 38.08 36.9949 38.08 36.9666 38.08C36.5144 38.052 35.8927 37.856 35.2709 37.492C34.9883 38.108 34.7339 38.724 34.4513 39.368C35.1296 39.788 36.2883 40.096 37.3906 40.18C37.5319 40.18 37.6449 40.18 37.758 40.18C39.9059 40.18 41.1494 39.088 41.1494 37.436C41.1494 34.748 37.758 34.776 37.758 33.6C37.758 33.208 38.0406 32.956 38.5776 32.956C38.6058 32.956 38.6623 32.956 38.6906 32.956C39.1145 32.984 39.6233 33.18 40.1885 33.516C40.4428 32.984 40.6689 32.424 40.9233 31.892C40.0754 31.36 39.1711 31.08 37.9275 30.996C37.8428 30.968 37.758 30.968 37.6732 30.968ZM20.0095 31.22C22.3835 31.22 23.5705 32.844 23.5988 35.42C23.5988 35.476 23.5988 35.56 23.5705 35.868C21.8183 36.204 20.066 36.596 18.3138 37.016C18.4834 37.884 19.1334 38.276 20.0378 38.276C20.1225 38.276 20.2073 38.276 20.3204 38.276C21.14 38.22 22.0444 37.912 22.6096 37.604C22.8357 38.248 23.09 38.864 23.3161 39.508C22.3835 40.012 21.1117 40.32 19.7834 40.432C19.5856 40.46 19.3877 40.46 19.1899 40.46C16.5615 40.46 15.2332 38.724 15.205 36.288C15.205 33.544 16.7594 31.5 19.5008 31.248C19.6704 31.248 19.8399 31.22 20.0095 31.22ZM18.0594 35.56C18.9073 35.336 19.7269 35.14 20.5747 34.944C20.5747 33.74 20.2356 33.04 19.5008 33.04C19.4725 33.04 19.416 33.04 19.3877 33.04C18.5399 33.124 18.0594 34.02 18.0594 35.252C18.0594 35.364 18.0594 35.392 18.0594 35.56ZM42.506 31.528C43.5517 31.64 44.5973 31.752 45.643 31.892C45.643 34.356 45.6713 36.848 45.6713 39.312C45.6713 42.28 44.0886 43.82 41.4038 43.82C41.319 43.82 41.2342 43.82 41.1777 43.82C41.1777 43.12 41.1777 42.448 41.1777 41.748C42.1668 41.496 42.5625 40.74 42.5625 39.34C42.5342 36.736 42.506 34.132 42.506 31.528ZM49.628 32.368C50.1084 32.368 50.5889 32.396 51.0693 32.48C53.3585 32.872 54.8282 34.104 54.8282 36.596C54.8282 38.304 54.8282 40.012 54.8564 41.748C54.4607 41.86 53.952 41.916 53.3303 41.916C52.7085 41.916 51.9737 41.86 51.1541 41.72C48.4127 41.244 46.9996 40.124 46.9996 38.22C46.9996 36.372 48.5823 35.84 50.6454 35.84C51.0693 35.84 51.4933 35.868 51.9454 35.896C51.9454 35.784 51.9454 35.672 51.9454 35.56C51.9454 34.888 51.4933 34.524 50.6171 34.356C50.3628 34.3 50.0802 34.3 49.8258 34.3C49.2323 34.3 48.6105 34.384 48.1866 34.524C47.9605 33.88 47.7344 33.264 47.5083 32.62C48.0736 32.48 48.8366 32.368 49.628 32.368ZM51.6628 40.068C51.7759 40.068 51.8607 40.068 51.9454 40.04C51.9454 39.116 51.9454 38.22 51.9454 37.296C51.8041 37.296 51.6628 37.268 51.5215 37.268C50.391 37.268 49.9106 37.66 49.9106 38.5C49.9106 39.368 50.4193 39.844 51.2672 40.012C51.4085 40.04 51.5498 40.068 51.6628 40.068Z" fill="white"/>
</svg>
