<svg width="82" height="38" viewBox="0 0 82 38" fill="none" xmlns="http://www.w3.org/2000/svg">
<path fill-rule="evenodd" clip-rule="evenodd" d="M56.4724 0.549988C55.3967 0.549988 54.3142 0.619175 53.2384 0.652122C52.1323 0.688363 51.0026 0.658711 49.8998 0.760845C48.9623 0.8498 48.4127 1.53179 47.809 2.14789C47.3706 1.713 46.9862 1.22539 46.3825 1.01453C46.0251 0.889336 45.6912 0.895925 45.327 0.905809C44.2378 0.94205 43.1485 0.974997 42.0626 1.01124C38.0327 1.13973 33.9995 1.27151 29.9696 1.40001C26.4287 1.51532 22.8945 1.62734 19.357 1.74265C18.4195 1.7723 17.3909 1.68993 16.5748 2.21708C15.0742 3.189 15.2765 4.9714 15.2327 6.49682C15.1349 10.0484 15.0371 13.6034 14.9393 17.155C14.9359 17.2407 14.9359 17.323 14.9325 17.4087C12.7911 17.412 10.6463 17.4284 8.50493 17.4416C8.16432 17.4449 7.81698 17.4284 7.47638 17.4548C6.2927 17.5438 5.37544 18.4926 5.11577 19.5864C4.991 20.1136 5.02135 20.6901 5.00448 21.2305C4.98425 21.8663 4.96402 22.5055 4.94716 23.1414C4.91681 24.1166 4.88308 25.0918 4.84936 26.067C4.18164 26.0604 3.5173 26.0505 2.84959 26.0505C1.56137 26.0505 0.4991 26.8643 0.192221 28.0965C0.0438398 28.6961 0.0876797 29.3649 0.0708182 29.981C0.0438398 30.6531 0 31.3285 0 31.9974C0.00337229 32.933 0.620502 33.5129 1.19042 34.1685C1.66591 34.7154 2.13803 35.4567 2.84959 35.7269C3.45997 35.9575 4.23223 35.8587 4.87634 35.8719C5.35858 35.8817 5.84419 35.8949 6.32642 35.9048C7.13915 35.9213 7.95524 35.9707 8.76797 35.9575C9.47615 35.9476 9.89094 35.6511 10.3698 35.1602C10.8959 35.7631 11.4759 36.0168 12.2684 36.0333C13.1115 36.0531 13.9512 36.0695 14.7943 36.0893C16.4838 36.1255 18.1868 36.231 19.8763 36.2013C20.0078 36.198 20.136 36.1914 20.2675 36.1684C20.3956 36.142 20.6216 36.1519 20.7329 36.1058C20.8003 36.0794 20.9251 35.9246 20.9925 35.8719C21.1949 35.7203 21.3635 35.5523 21.5422 35.3744C22.011 35.8916 22.5101 36.2507 23.2452 36.2771C23.8118 36.2969 24.3783 36.3035 24.9415 36.3133C26.2533 36.343 27.5719 36.4056 28.8871 36.399C29.6391 36.3957 30.1213 36.0531 30.6238 35.5457C31.1667 36.1354 31.74 36.4616 32.5561 36.4781C33.2778 36.4945 34.0028 36.511 34.7245 36.5242C36.7749 36.5703 38.8252 36.6132 40.8722 36.6593C41.9176 36.6823 42.963 36.7054 44.0118 36.7285C45.037 36.7515 46.0622 36.7746 47.0873 36.7977C47.6404 36.8108 48.3149 36.8899 48.7195 36.4583C49.2085 35.941 49.0298 34.6495 49.0399 33.9906C49.0534 33.1241 49.0669 32.2543 49.0804 31.3878L51.3938 31.4175C51.3769 32.541 51.36 33.6644 51.3466 34.7879C51.3398 35.2525 51.2555 35.8389 51.4814 36.2573C51.7512 36.7614 52.2571 36.9097 52.7933 36.9228C55.3427 36.9789 57.8888 37.0349 60.4383 37.0909C61.1566 37.1073 61.8647 37.0678 62.5695 37.0678C62.6404 36.8174 63.126 36.6428 63.3418 36.4418C63.588 36.2079 63.8274 35.974 64.0736 35.7368C64.5322 35.2953 64.9942 34.8505 65.4529 34.409C65.4461 35.1833 65.2134 36.3562 65.8879 36.9261C66.4005 37.3577 67.2773 37.2424 67.9079 37.2556C69.7053 37.2951 71.5028 37.3643 73.3002 37.3742C74.0657 37.3775 74.7233 36.8998 74.7334 36.1222C74.7402 35.6972 74.7402 35.2722 74.7435 34.8472C74.757 32.9067 74.7705 30.9628 74.784 29.0223C74.7941 27.5628 74.8042 26.1065 74.8143 24.647C75.735 24.6503 77.1581 24.9303 77.6167 23.8925C77.7651 23.5565 77.7246 23.1512 77.7246 22.7921C77.728 22.2584 77.7314 21.7247 77.7348 21.1909C77.7415 20.2256 77.7719 19.257 77.7516 18.2916C77.7482 18.0445 77.6909 17.8897 77.6032 17.6591C77.438 17.2374 76.922 17.0199 76.4634 16.9968C74.6154 16.9046 72.7336 17.0199 70.8823 17.0331C69.4457 17.043 68.0057 17.0529 66.5691 17.0594C64.4783 17.0726 62.3841 17.0891 60.2933 17.1023C60.3236 14.6214 60.354 12.1438 60.3809 9.66297C60.3978 8.21992 60.4147 6.77686 60.4315 5.33381C60.4416 4.4805 60.5158 3.70955 59.8582 3.01768C59.3524 2.48394 58.7993 1.98645 58.2699 1.47578C57.7505 0.99147 57.2683 0.549988 56.4724 0.549988Z" fill="white"/>
<path fill-rule="evenodd" clip-rule="evenodd" d="M65.2349 36.3828V36.2805L65.2482 34.8321L63.2822 36.7424L63.6132 36.7193C64.1649 36.683 64.7166 36.6467 65.2683 36.6137C65.2549 36.5378 65.2315 36.462 65.2349 36.3828Z" fill="#C88F00"/>
<path fill-rule="evenodd" clip-rule="evenodd" d="M51.252 36.0793L51.2553 35.878L51.3122 31.8363L49.0185 31.8066L48.9516 36.0232C48.9483 36.1848 48.9148 36.3399 48.8513 36.4917C49.6705 36.4554 50.493 36.4224 51.3122 36.3861C51.2854 36.2871 51.252 36.1848 51.252 36.0793Z" fill="#C88F00"/>
<path fill-rule="evenodd" clip-rule="evenodd" d="M81.1601 21.3643L81.1567 21.3445L81.1534 21.3247L81.1501 21.3016C81.1434 21.2752 81.1367 21.2554 81.1367 21.2554L81.1267 21.2323L81.1166 21.2125C81.1166 21.2092 81.1066 21.1927 81.1066 21.1927C81.0966 21.1729 81.0832 21.1564 81.0832 21.1564L81.0698 21.1366L81.0564 21.1168C81.0564 21.1135 81.0431 21.1003 81.0431 21.1003C81.0297 21.0872 81.0263 21.0839 81.023 21.0773C81.0029 21.0575 80.9896 21.0476 80.9896 21.0476L80.9695 21.0311L80.9494 21.0179C79.7792 20.2755 78.6089 19.5332 77.4387 18.7941L77.4086 23.8058C77.4086 23.9741 77.3718 24.139 77.305 24.2974C77.2381 24.4459 77.1478 24.5778 77.0274 24.6966C76.9138 24.8055 76.7834 24.8913 76.6396 24.9539C76.6229 24.9605 76.6095 24.9671 76.5928 24.9737C76.4423 25.0298 76.2919 25.0562 76.1414 25.0595C76.128 25.0595 74.5265 25.0529 74.5265 25.0529L74.4496 36.5609C74.4496 36.5906 74.4462 36.6203 74.4462 36.6467V36.7028C74.4462 36.7061 74.4462 36.7886 74.4462 36.7886L74.4128 36.8513C74.4027 36.8975 74.3827 36.9404 74.366 36.9832C75.6766 36.8513 76.984 36.7226 78.2947 36.5906C78.3515 36.584 78.4083 36.5675 78.4551 36.5444C78.5053 36.5213 78.5488 36.4851 78.5889 36.4455C78.6257 36.4059 78.6558 36.3597 78.6758 36.3069C78.6959 36.2574 78.7093 36.2013 78.7093 36.1419L78.7561 26.5508C78.7561 26.4881 78.7694 26.4287 78.7928 26.3727C78.8162 26.3199 78.853 26.2704 78.8932 26.2275C78.9366 26.1879 78.9868 26.1549 79.0436 26.1318C79.0704 26.1219 79.1005 26.112 79.1305 26.1054C79.1406 26.1021 79.1539 26.1021 79.164 26.1021C79.184 26.0988 79.2041 26.0955 79.2242 26.0955L80.6719 26.1021C80.6953 26.1021 80.7154 26.0988 80.7355 26.0955C80.7455 26.0955 80.7589 26.0955 80.7655 26.0922C80.7956 26.0856 80.8257 26.0757 80.8525 26.0658C80.9093 26.0427 80.9595 26.0097 81.0029 25.9668C81.0464 25.9272 81.0798 25.8778 81.1032 25.8217C81.13 25.7656 81.14 25.7062 81.14 25.6435L81.1567 21.394V21.3742L81.1601 21.3643Z" fill="#C88F00"/>
<path fill-rule="evenodd" clip-rule="evenodd" d="M60.1157 4.0462C60.1324 4.0858 60.1492 4.12869 60.1659 4.17488C60.1759 4.20457 60.1859 4.23756 60.196 4.26396C60.2027 4.28705 60.2093 4.31015 60.216 4.33654C60.2194 4.35634 60.2261 4.37284 60.2294 4.38933C60.2428 4.45202 60.2495 4.48171 60.2562 4.51471C60.2695 4.58729 60.2762 4.65328 60.2796 4.71926C60.2796 4.75556 60.2796 4.76875 60.2796 4.78195C60.2796 4.80175 60.1291 17.5008 60.1291 17.5008H60.2996L60.5437 17.4975H60.7677L66.7594 17.4579C66.7694 17.4579 66.8396 9.8629 66.8396 9.8629V9.8299L66.8363 9.79361L66.8329 9.76062C66.8329 9.75402 66.8263 9.73092 66.8263 9.73092C66.8229 9.70453 66.8196 9.68803 66.8129 9.66824C66.8095 9.65174 66.8062 9.63524 66.7995 9.61875C66.7962 9.60885 66.7962 9.60225 66.7928 9.59235C66.7861 9.56926 66.7794 9.54946 66.7728 9.52637C66.7694 9.51647 66.7661 9.50657 66.7627 9.49667C66.7594 9.48347 66.7527 9.47358 66.7494 9.46368C66.746 9.45708 66.7259 9.41089 66.7259 9.41089C66.7193 9.40099 66.6959 9.3515 66.6959 9.3515C66.6959 9.3482 66.6658 9.29541 66.6658 9.29541L66.6524 9.27232C66.6457 9.25912 66.6357 9.24262 66.6357 9.24262L66.6089 9.20633L66.5922 9.18654C66.5822 9.17004 66.5554 9.14035 66.5554 9.14035L66.5287 9.11065L64.8703 7.48739L64.8502 7.47089L64.8301 7.4544L64.8101 7.4379L64.7867 7.4214C63.2319 6.29634 61.6705 5.16797 60.1157 4.0462Z" fill="#C88F00"/>
<path fill-rule="evenodd" clip-rule="evenodd" d="M21.5912 34.9938C21.6079 34.9872 21.6246 34.9839 21.6413 34.9806C21.6714 34.9773 21.6948 34.974 21.7182 34.974C21.7651 34.974 21.7951 34.9773 21.8252 34.9872C21.8553 34.9938 21.8854 35.0037 21.9122 35.0168C21.9389 35.03 21.969 35.0465 21.9958 35.0663C22.0158 35.0795 22.0325 35.096 22.0493 35.1125C22.0559 35.1191 22.0626 35.1257 22.0693 35.1356L22.4438 35.5546L22.494 35.6107C22.5374 35.6602 22.5976 35.7097 22.6611 35.7559C22.718 35.7955 22.7848 35.8351 22.8517 35.8681C22.8584 35.8714 22.8651 35.8747 22.8718 35.878C22.9453 35.9143 23.0222 35.9407 23.0958 35.9605C23.1694 35.9803 23.2429 35.9935 23.3098 35.9935L29.0707 36.1221C29.151 36.1221 29.2179 36.1122 29.2914 36.099C29.3449 36.0858 29.3984 36.0726 29.4519 36.0528C29.4753 36.0429 29.4987 36.0363 29.5221 36.0264C29.5422 36.0198 29.5622 36.0099 29.5823 36C29.6458 35.9704 29.696 35.944 29.7428 35.9143C29.8097 35.8714 29.8699 35.8252 29.92 35.7757L30.2644 35.4293L30.3814 35.3105C30.3948 35.2973 30.4115 35.2841 30.4249 35.2709C30.4349 35.261 30.4483 35.2544 30.4583 35.2445C30.465 35.2412 30.4684 35.2379 30.475 35.2346C30.4984 35.2214 30.5218 35.2082 30.5486 35.1983C30.5687 35.1917 30.5854 35.1851 30.6054 35.1785C30.6121 35.1785 30.6188 35.1752 30.6255 35.1752C30.669 35.1653 30.6991 35.1653 30.7258 35.1653C30.7693 35.1653 30.7994 35.1686 30.8295 35.1752C30.8595 35.1818 30.8896 35.1917 30.9197 35.2049C30.9498 35.2181 30.9766 35.2346 31.0033 35.2544C31.02 35.2676 31.0368 35.2808 31.0535 35.2973C31.0635 35.3039 31.0702 35.3138 31.0769 35.3237L31.458 35.7427L31.5182 35.8087C31.565 35.8615 31.6252 35.911 31.6888 35.9572C31.7389 35.9934 31.7957 36.0264 31.8526 36.0561C31.8693 36.066 31.886 36.0726 31.9027 36.0825C31.9796 36.1188 32.0565 36.1485 32.1334 36.1683C32.2103 36.1881 32.2839 36.2013 32.3541 36.2013L42.0739 36.4191C42.1441 36.4224 42.2277 36.4224 42.3146 36.4257C42.4015 36.429 42.4951 36.429 42.5888 36.4323C42.6824 36.4356 42.776 36.4356 42.8629 36.4389C42.9499 36.4389 43.0335 36.4422 43.1037 36.4455L47.7011 36.5477C47.7813 36.5477 47.8448 36.5345 47.905 36.5081C47.9284 36.4982 47.9485 36.4883 47.9719 36.4751C47.9953 36.462 48.0087 36.4521 48.0221 36.4422C48.0388 36.429 48.0555 36.4158 48.0722 36.396C48.0856 36.3828 48.099 36.3696 48.109 36.3564C48.1391 36.3168 48.1658 36.2739 48.1859 36.2277C48.2126 36.165 48.2294 36.0924 48.2294 36.0198L48.2962 31.6417C48.2996 31.5658 48.3129 31.4965 48.3397 31.4338C48.3664 31.3711 48.4066 31.3117 48.4534 31.2655C48.5002 31.2193 48.557 31.1797 48.6206 31.1534C48.6272 31.1501 48.6306 31.1468 48.6373 31.1468C48.7008 31.1237 48.7576 31.1138 48.8145 31.1138C48.8245 31.1138 51.486 31.1501 51.486 31.1501C51.5027 31.1501 51.5194 31.1501 51.5361 31.1534C51.5896 31.16 51.6431 31.1731 51.6899 31.1929C51.7434 31.2193 51.7936 31.2523 51.8337 31.2919C51.8404 31.2985 51.8471 31.3051 51.8538 31.3117C51.9006 31.3612 51.9374 31.4206 51.9641 31.4866C51.9909 31.5526 52.0042 31.6219 52.0009 31.6977L51.9976 31.8264L51.9641 35.8879L51.9608 36.0891C51.9608 36.165 51.9741 36.2343 52.0009 36.3003C52.0076 36.3201 52.0176 36.3366 52.0276 36.3564C52.051 36.3993 52.0811 36.4389 52.1146 36.4751C52.1614 36.5246 52.2182 36.5675 52.2818 36.5939C52.3453 36.6236 52.4155 36.6401 52.4857 36.6434L61.6103 36.8447C61.6504 36.8447 61.6738 36.8447 61.6972 36.8414C61.7106 36.8381 61.724 36.8381 61.7374 36.8381C61.7474 36.8381 61.7541 36.8348 61.7608 36.8348C61.7908 36.8315 61.8209 36.8249 61.851 36.8183C61.8845 36.8084 61.9212 36.8018 61.958 36.7919C61.9848 36.7853 62.0048 36.7754 62.0282 36.7688C62.0583 36.7589 62.0851 36.749 62.1085 36.7391C62.1285 36.7325 62.1486 36.7226 62.172 36.7127C62.2355 36.6863 62.2957 36.6533 62.3526 36.6203C62.376 36.6071 62.396 36.5906 62.4194 36.5774C62.4662 36.5444 62.5097 36.5081 62.5465 36.4751L65.5824 33.5256L65.646 33.4728L65.7062 33.4365L65.7597 33.4134L65.8098 33.4068C65.8366 33.4068 65.8566 33.4134 65.8767 33.4266C65.8967 33.4398 65.9135 33.4596 65.9268 33.4827C65.9369 33.4992 65.9436 33.5157 65.9502 33.5355C65.9536 33.5454 65.9569 33.5586 65.9603 33.5718C65.967 33.608 65.9703 33.6476 65.9703 33.6938L65.9436 36.2838V36.3861C65.9436 36.4488 65.9536 36.5081 65.9703 36.5642C65.9736 36.5774 65.9803 36.5906 65.9837 36.6005C66.0138 36.6665 66.0505 36.7292 66.1007 36.7787C66.1508 36.8315 66.211 36.8711 66.2746 36.9008C66.3414 36.9305 66.415 36.9469 66.4885 36.9502L73.1623 37.0987C73.1991 37.0987 73.2225 37.0987 73.2459 37.0954C73.2927 37.0888 73.3395 37.0789 73.383 37.0591C73.3963 37.0558 73.4064 37.0492 73.4198 37.0426C73.4733 37.0162 73.5234 36.9832 73.5635 36.9404C73.6137 36.8909 73.6572 36.8315 73.6872 36.7655C73.7073 36.7193 73.7207 36.6698 73.7274 36.6203C73.7307 36.5906 73.734 36.5708 73.734 36.5477L73.8143 24.9011C73.8143 24.8253 73.831 24.7527 73.8611 24.6867C73.8912 24.6207 73.9313 24.5613 73.9848 24.5118C74.035 24.4623 74.0952 24.4228 74.1654 24.3931C74.2322 24.3667 74.3025 24.3502 74.3794 24.3502C74.386 24.3502 76.1314 24.3568 76.1314 24.3568C76.2083 24.3568 76.2752 24.3436 76.3354 24.3205C76.4189 24.2875 76.4791 24.2446 76.5326 24.1951C76.5861 24.1456 76.6262 24.0862 76.6563 24.0169C76.6864 23.9509 76.7031 23.8784 76.7031 23.7992L76.7332 18.6391C76.7332 18.6028 76.7299 18.5698 76.7232 18.5368C76.7098 18.4873 76.7031 18.4576 76.6931 18.4345C76.6864 18.4147 76.6797 18.4048 76.673 18.3916C76.6697 18.385 76.6664 18.3817 76.663 18.3751C76.643 18.3421 76.6229 18.3124 76.5961 18.2827C76.5861 18.2728 76.5761 18.2596 76.566 18.2497C76.5594 18.2431 76.5527 18.2365 76.546 18.2299C76.5259 18.2134 76.5126 18.2035 76.4992 18.1936C76.4925 18.1903 76.4891 18.187 76.4825 18.1837C76.4524 18.1639 76.4189 18.1475 76.3855 18.131C76.3186 18.1046 76.2451 18.0881 76.1682 18.0881C76.1648 18.0881 66.7627 18.1508 66.7627 18.1508L60.7711 18.1903H60.547L60.303 18.1936H60.1191H59.9719H59.9485C59.8984 18.1936 59.8549 18.187 59.8115 18.1771C59.7947 18.1738 59.778 18.1672 59.7613 18.1607L59.7412 18.1508C59.6777 18.1244 59.6209 18.0848 59.5707 18.0353C59.5239 17.9858 59.4838 17.9297 59.457 17.8637C59.4303 17.7977 59.4169 17.7284 59.4169 17.6559L59.5707 4.78193C59.5707 4.76213 59.5707 4.75553 59.5707 4.74564C59.5707 4.69945 59.564 4.65656 59.5573 4.61366C59.554 4.59057 59.5473 4.56747 59.544 4.54438C59.5373 4.52128 59.5339 4.50809 59.5306 4.49489C59.5273 4.47839 59.5239 4.46519 59.5172 4.4487C59.5105 4.4256 59.5038 4.40251 59.4972 4.37941C59.4871 4.34972 59.4771 4.32002 59.4637 4.29363C59.437 4.22764 59.4069 4.16496 59.3734 4.10557C59.3634 4.08907 59.3534 4.07588 59.3467 4.06268C59.3032 3.99009 59.2531 3.92741 59.2029 3.87792L57.2302 1.94122C57.2235 1.93462 57.2169 1.92802 57.2068 1.92142C57.2001 1.91482 57.1934 1.91153 57.1901 1.90493C57.1634 1.88183 57.15 1.87193 57.1366 1.86204C57.1065 1.84224 57.0764 1.82244 57.043 1.79935C56.9728 1.75646 56.8925 1.72016 56.8123 1.68717C56.7287 1.65748 56.6451 1.63108 56.5615 1.61459C56.488 1.60139 56.4177 1.59149 56.3542 1.59149C56.3442 1.59149 56.3375 1.59149 56.3275 1.59149L49.9212 1.79935C49.8476 1.80265 49.7707 1.81585 49.6905 1.83564C49.6102 1.85874 49.5267 1.88513 49.4464 1.92142C49.3662 1.95772 49.2893 2.00061 49.2157 2.0468C49.1455 2.09299 49.082 2.14248 49.0318 2.19527L48.1424 3.11248C48.1324 3.12237 48.1224 3.13227 48.1123 3.14217C48.1056 3.14877 48.0956 3.15537 48.0889 3.16197C48.0789 3.16856 48.0689 3.17846 48.0588 3.18506C48.0287 3.20486 47.9986 3.22135 47.9686 3.23455C47.9385 3.24775 47.905 3.25765 47.8716 3.26424C47.8382 3.27084 47.8047 3.27744 47.7713 3.27744C47.7278 3.27744 47.6977 3.27414 47.671 3.27084C47.6543 3.26754 47.6409 3.26424 47.6242 3.26094C47.6075 3.25765 47.5907 3.25105 47.574 3.24445C47.5506 3.23455 47.5305 3.22465 47.5105 3.21475C47.5005 3.23455 47.4904 3.23125 47.4837 3.22465C47.4637 3.21146 47.447 3.19826 47.4302 3.18506C47.4202 3.17516 47.4102 3.16856 47.4035 3.16197L46.5475 2.30084C46.5175 2.27115 46.4874 2.24476 46.4539 2.22166C46.4372 2.20846 46.4205 2.19857 46.4038 2.18867C46.3871 2.17877 46.377 2.17217 46.367 2.16557C46.3603 2.16227 46.3536 2.15567 46.3436 2.15238C46.2801 2.11608 46.2132 2.08309 46.143 2.0567C46.0627 2.027 45.9825 2.00061 45.9022 1.98411C45.832 1.97091 45.7618 1.96101 45.7016 1.96101C45.6916 1.96101 45.6849 1.96101 45.6749 1.96101L18.144 2.85513C17.8865 2.86173 17.6391 2.92771 17.4151 3.03659C17.1877 3.14547 16.9838 3.29724 16.8099 3.482C16.636 3.67006 16.4923 3.88781 16.392 4.12866C16.2916 4.36951 16.2315 4.63346 16.2248 4.9073L15.8603 18.1376C15.8436 18.1903 15.8202 18.2365 15.7901 18.2794C15.76 18.3223 15.7266 18.3619 15.6865 18.3916C15.6463 18.4246 15.6029 18.4477 15.5561 18.4675C15.5093 18.484 15.4591 18.4939 15.4056 18.4939L13.8141 18.4972L7.92271 18.5368C7.67194 18.5368 7.43455 18.5962 7.21387 18.705C6.9932 18.8106 6.79593 18.9624 6.62541 19.1504C6.45488 19.3385 6.3178 19.5596 6.21749 19.807C6.12053 20.0545 6.06034 20.325 6.05031 20.6054L5.95001 23.8652L5.85639 26.7026C5.85304 26.7587 5.84301 26.8115 5.82964 26.8609C5.81292 26.9104 5.78952 26.9566 5.75942 26.9962C5.72933 27.0358 5.6959 27.0721 5.65577 27.1018C5.61899 27.1315 5.57218 27.1546 5.52872 27.1711L3.03108 27.1513C2.77697 27.1513 2.54292 27.2041 2.32893 27.3031C2.1116 27.402 1.91098 27.5472 1.7438 27.7221C1.57663 27.9002 1.4362 28.1114 1.33923 28.3489C1.24227 28.5832 1.18209 28.8438 1.17206 29.1144L1.15199 29.7083L1.06506 32.4302C1.06172 32.4995 1.0684 32.5754 1.08178 32.6512C1.09515 32.7271 1.11521 32.8063 1.14196 32.8855C1.16871 32.9647 1.1988 33.0373 1.23558 33.1065C1.27236 33.1758 1.31248 33.2352 1.35261 33.2847L2.98092 35.1851C3.02439 35.2346 3.07454 35.2841 3.13473 35.327C3.19491 35.3699 3.26178 35.4095 3.32865 35.4458C3.39887 35.4788 3.46908 35.5084 3.5393 35.5282C3.60951 35.548 3.67638 35.5579 3.73657 35.5612L5.12749 35.5909C5.19102 35.5909 5.26458 35.5942 5.34148 35.5942C5.41838 35.5942 5.50197 35.5975 5.58221 35.6008C5.6658 35.6041 5.74605 35.6041 5.82629 35.6074C5.90654 35.6107 5.97675 35.6107 6.04028 35.614L9.09295 35.68C9.11302 35.68 9.1197 35.68 9.12639 35.68C9.17989 35.68 9.24007 35.6701 9.29691 35.6569C9.34372 35.6437 9.39388 35.6305 9.44069 35.614C9.46743 35.6041 9.49084 35.5942 9.51424 35.5876C9.54434 35.5744 9.57777 35.5612 9.60786 35.5447C9.63796 35.5282 9.66136 35.515 9.68811 35.5019C9.70483 35.492 9.71486 35.4854 9.72154 35.4788C9.78507 35.4392 9.84191 35.393 9.88872 35.3435L10.3234 34.8915C10.3368 34.8783 10.3501 34.8651 10.3669 34.8519C10.3769 34.842 10.3869 34.8354 10.3969 34.8255C10.4203 34.809 10.4304 34.8057 10.4404 34.7991C10.4538 34.7925 10.4672 34.7859 10.4805 34.7793C10.4939 34.7727 10.5073 34.7694 10.5207 34.7628C10.5374 34.7595 10.5507 34.7529 10.5675 34.7529C10.5808 34.7496 10.5942 34.7463 10.6109 34.7463C10.6243 34.7463 10.6343 34.7463 10.6444 34.7463C10.6845 34.7463 10.7146 34.7496 10.7413 34.7562C10.7681 34.7628 10.7982 34.7727 10.8249 34.7859C10.8517 34.7991 10.8784 34.8123 10.9052 34.8321C10.9252 34.8486 10.9419 34.8618 10.9587 34.8816C10.9654 34.8882 10.9687 34.8948 10.9754 34.9014L11.3398 35.3204L11.38 35.3666C11.4234 35.4161 11.4803 35.4656 11.5404 35.5084C11.604 35.5513 11.6708 35.5942 11.7411 35.6272C11.8213 35.6635 11.8882 35.6899 11.9584 35.7097C12.0286 35.7295 12.0988 35.7427 12.1623 35.7427L20.1 35.9209C20.1735 35.9209 20.237 35.9143 20.3039 35.8978C20.3307 35.8912 20.344 35.8879 20.3608 35.8846C20.4109 35.8714 20.4644 35.8549 20.5146 35.8351C20.5246 35.8318 20.5313 35.8285 20.5413 35.8252C20.5948 35.8021 20.6416 35.779 20.6918 35.7526C20.7185 35.7361 20.7352 35.7262 20.7553 35.7163C20.7653 35.7097 20.7754 35.7031 20.782 35.6965C20.8188 35.6701 20.8556 35.6437 20.889 35.614C20.9024 35.6008 20.9158 35.5909 20.9258 35.5777L21.2936 35.2049L21.3772 35.1191C21.3973 35.0993 21.4207 35.0795 21.4441 35.063C21.4909 35.03 21.5176 35.0201 21.541 35.0103C21.5644 35.0037 21.5778 35.0004 21.5912 34.9938Z" fill="#2D0600"/>
<path fill-rule="evenodd" clip-rule="evenodd" d="M61.6004 20.4075C61.8378 20.4042 62.1521 20.5461 62.2992 20.7242L62.9344 21.5062C63.0782 21.6843 63.1986 22.0209 63.1986 22.2485V33.4926C63.1986 33.7202 63.0648 34.0469 62.901 34.2184L62.0317 35.1257C61.8678 35.2973 61.5402 35.4359 61.2994 35.4359L55.3613 35.2412C55.1239 35.2412 54.8062 35.096 54.6558 34.9212L53.9403 34.0733C53.7931 33.8951 53.6694 33.5619 53.6694 33.3342V22.2584C53.6694 22.0308 53.7965 21.6975 53.9536 21.5194L54.6625 20.711C54.8163 20.5362 55.1406 20.3877 55.378 20.3811L61.6004 20.4075ZM58.22 32.1366C58.6413 32.1267 58.9823 31.7208 58.9823 31.2292V24.3172C58.9823 23.8256 58.6413 23.433 58.22 23.4396C57.7987 23.4495 57.4577 23.8553 57.4577 24.3469V31.2589C57.4577 31.7505 57.7987 32.1465 58.22 32.1366Z" fill="#F6C900"/>
<path fill-rule="evenodd" clip-rule="evenodd" d="M50.202 18.2695C49.9646 18.2695 49.6436 18.1244 49.4965 17.9495L48.7777 17.1049C48.6305 16.93 48.5068 16.5968 48.5068 16.3691V5.33623C48.5068 5.10528 48.6372 4.77535 48.791 4.59719L49.4999 3.79215C49.6537 3.61729 49.978 3.46882 50.2154 3.46222L56.4411 3.32035C56.6785 3.31375 56.9928 3.45562 57.1399 3.63379L57.7819 4.41572C57.9257 4.59389 58.046 4.92712 58.046 5.15477V16.3724C58.046 16.6001 57.9123 16.9267 57.7484 17.095L56.8791 17.999C56.7153 18.1673 56.3843 18.3058 56.1469 18.3058L50.202 18.2695ZM53.2915 6.51409C52.8702 6.52398 52.5291 6.9265 52.5291 7.4181V14.3038C52.5291 14.7954 52.8702 15.188 53.2915 15.1781C53.7161 15.1682 54.0572 14.7657 54.0572 14.2741V7.3884C54.0572 6.89681 53.7128 6.50749 53.2915 6.51409Z" fill="#F6C900"/>
<path fill-rule="evenodd" clip-rule="evenodd" d="M18.1005 17.8109C18.5117 18.1705 19.05 18.1211 19.6184 18.1178L24.5234 18.1474C24.5402 18.1474 24.5469 18.1474 24.5636 18.1474C25.152 18.1375 25.6669 18.1408 26.0414 17.8109C26.4192 17.4777 26.4126 17.0092 26.4092 16.5869V15.6433C26.3724 15.2506 26.3724 14.8481 26.0347 14.5677C25.6569 14.2477 25.1353 14.2642 24.5402 14.2708L21.4908 14.2905L21.4942 12.9312L24.5034 12.9081C25.1119 12.8982 25.6302 12.9015 26.008 12.5716C26.3825 12.2483 26.3758 11.8029 26.3758 11.3806C26.3758 11.3707 26.3758 11.3608 26.3758 11.3509V10.4435C26.3323 10.0542 26.329 9.66821 26.0046 9.39106C25.6268 9.06773 25.1052 9.08753 24.5067 9.09083L21.4975 9.11392L21.5009 7.7579L24.5268 7.73481C24.5469 7.73481 24.5502 7.73481 24.5703 7.73481C25.1554 7.72491 25.6703 7.73151 26.0481 7.39828C26.4259 7.06505 26.4192 6.59654 26.4159 6.17423V5.20423L26.3992 5.18774C26.3557 4.82811 26.3557 4.46189 26.0414 4.20124C25.6603 3.87791 25.1387 3.89441 24.5435 3.901L19.6485 3.9373C19.6318 3.9373 19.6118 3.9373 19.6051 3.9373C19.0467 3.94719 18.5284 4.05277 18.1205 4.4256C17.7126 4.79842 17.716 5.65294 17.7193 6.18083L17.7093 16.4351C17.7059 16.9828 17.6892 17.4513 18.1005 17.8109Z" fill="#F6C900"/>
<path fill-rule="evenodd" clip-rule="evenodd" d="M43.3109 13.6142C43.2941 13.2645 43.2072 13.1259 43.1136 13.0434L43.1107 13.0409C43.0146 12.9591 42.9121 12.8719 42.495 12.8784L42.0035 12.8817L42.0002 17.4315C42.0035 17.9693 41.8464 18.1672 41.2111 18.1804C40.7479 18.1894 40.1046 18.2088 39.6175 18.2236C39.3837 18.2306 39.1859 18.2366 39.0612 18.2398H39.0345C38.0226 18.253 38.028 17.6507 38.038 16.5447L38.0381 16.5407C38.028 16.5209 38.0314 16.4879 38.0381 16.4516L38.0481 5.389C38.0481 5.365 38.0481 5.34103 38.048 5.31709C38.0472 4.81101 38.0463 4.31953 38.4326 3.9604C38.8018 3.62292 39.2752 3.61796 39.7758 3.61271C39.8282 3.61216 39.8809 3.61161 39.9339 3.61067H39.9874L44.2103 3.54138C46.2699 3.50179 47.2095 4.74563 47.2095 6.66254C47.2095 6.66254 47.3231 9.42736 46.9553 10.0377C46.8542 10.2041 46.6547 10.3452 46.4698 10.4759C46.3798 10.5396 46.2932 10.6008 46.2231 10.6613C46.4739 10.856 46.8216 11.3641 46.8216 11.3641C47.1326 11.9513 47.1827 12.598 47.1894 13.3601L47.1961 12.9015L47.1894 17.4513C47.1927 17.9891 47.0356 18.187 46.4003 18.2002C46.4003 18.2002 44.2705 18.1969 44.1768 18.1969C43.7622 18.2035 43.2975 17.9528 43.3075 16.9531C43.2975 16.9333 43.2975 16.9003 43.3075 16.864L43.3109 13.6142ZM42.0035 9.04134L42.3814 9.03804C42.388 9.03804 42.4014 9.03804 42.4215 9.03475C42.8628 9.02815 43.1236 8.93247 43.2641 8.80049C43.4045 8.67512 43.5483 8.42767 43.5549 7.83379C43.5583 7.24981 43.4413 6.95617 43.3376 6.8539C43.244 6.75162 43.0534 6.64604 42.4984 6.64604L42.0069 6.64934L42.0035 9.04134Z" fill="#F6C900"/>
<path fill-rule="evenodd" clip-rule="evenodd" d="M44.6318 20.2557L48.1057 20.3316C49.841 20.2986 51.8004 20.6714 51.8004 23.1921C51.8004 24.0433 51.8405 26.6564 51.8405 26.6564C51.8405 29.2167 50.5599 29.4608 48.6708 29.4971C48.6413 29.4971 48.5563 29.4982 48.4537 29.4996C48.2539 29.5023 47.9871 29.5059 47.9319 29.5037L46.6446 29.5598V33.8918C46.6446 34.8255 45.7385 34.908 44.7722 34.9278C43.5384 34.9509 42.7025 34.7133 42.7025 33.9512L42.6992 22.1198C42.6991 22.1001 42.6989 22.0803 42.6988 22.0604C42.6949 21.5411 42.6907 20.9677 43.0803 20.6054C43.4734 20.2432 44.5386 20.2547 44.6266 20.2557C44.6292 20.2557 44.6309 20.2557 44.6318 20.2557ZM47.0792 25.9074C47.4872 25.8909 47.6477 25.792 47.7781 25.6435C47.9085 25.4917 48.0188 25.1981 48.0221 24.7461C48.0221 24.1654 47.8884 23.8322 47.7446 23.6639C47.5975 23.5022 47.4236 23.4132 47.0558 23.3967L46.4105 23.3769V25.8909L46.9789 25.9074H47.0792Z" fill="#F6C900"/>
<path fill-rule="evenodd" clip-rule="evenodd" d="M74.1953 22.5124C74.1987 22.1858 74.1552 21.516 74.1887 21.3544C74.1887 20.9156 74.1218 20.5031 73.3327 20.5196C71.4369 20.5097 66.0203 20.48 65.9769 20.48C65.4319 20.4899 64.9404 20.3976 64.5859 20.7242C64.2282 21.0475 64.3285 21.6546 64.3318 22.0604C64.3285 22.4893 64.3786 23.1426 64.9705 23.1591L67.1571 23.1789V34.4361C67.1538 35.5381 67.6052 35.6932 68.6116 35.7097C68.6517 35.7097 69.3305 35.746 69.3706 35.7427C69.6748 35.7526 70.7381 35.8549 71.0959 35.5348C71.457 35.2148 71.4202 34.8783 71.4168 34.3603V23.2548C71.4168 23.2548 72.6707 23.2878 73.4464 23.2383C74.1586 23.2416 74.1987 22.9182 74.1953 22.5124Z" fill="#F6C900"/>
<path fill-rule="evenodd" clip-rule="evenodd" d="M28.6461 17.8769C28.7866 18.0518 29.0808 18.1969 29.3015 18.1969L34.8351 18.1639C35.0557 18.1639 35.3634 18.0254 35.5172 17.8571L36.3263 16.9531C36.4768 16.7848 36.6038 16.4582 36.6038 16.2305L36.6205 5.60675C36.6172 5.59685 36.6138 5.31971 36.6138 5.31971C36.6172 4.83471 36.567 4.21773 36.2293 3.93069C35.8916 3.64035 35.4503 3.65025 34.9922 3.66015C34.9788 3.66015 34.0226 3.67665 34.0059 3.67995L34.3302 3.67335C33.4475 3.69974 32.9326 3.99338 32.8858 4.94358L32.8891 5.76511L32.8958 13.1061L32.8824 14.1322C32.8824 14.6238 32.5648 15.0263 32.1736 15.0329C31.7824 15.0395 31.4648 14.6469 31.4648 14.1586L31.4514 13.116L31.4614 5.08875V5.05576V4.99637C31.4146 4.04617 30.8964 3.76903 30.017 3.77563L30.3413 3.76903C30.3246 3.76903 29.482 3.78552 29.4753 3.78552C29.0106 3.79542 28.4689 3.80202 28.1346 4.10556C27.7969 4.40579 27.7467 5.02277 27.7501 5.50777L27.72 16.3031C27.72 16.5308 27.8337 16.864 27.9741 17.0389L28.6461 17.8769Z" fill="#F6C900"/>
<path fill-rule="evenodd" clip-rule="evenodd" d="M40.9805 29.6687C40.9771 28.9098 40.927 28.2599 40.6127 27.6693C40.6127 27.6693 40.265 27.1612 40.0142 26.9632C40.2282 26.7785 40.596 26.5871 40.7464 26.3364C40.7464 26.3364 40.9805 26.0229 40.9805 24.7362C40.9805 24.7296 40.9838 20.9057 40.9838 20.9057C40.9872 20.3679 40.83 20.1732 40.1948 20.1831C40.1948 20.1831 38.0682 20.1699 37.9713 20.1765C37.5567 20.1831 37.0953 20.4042 37.102 21.4072C37.0953 21.4303 37.1053 24.6174 37.1053 24.6174C37.0852 24.9671 36.9983 25.1123 36.908 25.1981C36.8144 25.2839 36.7108 25.3796 36.2861 25.3928L35.798 25.4092L35.7913 20.8727C35.7946 20.3349 35.6375 20.1402 35.0022 20.1501L33.1599 20.0974C32.7353 20.1237 32.3641 20.1897 32.227 20.3151C31.8225 20.6912 31.8425 21.2158 31.8459 21.7503L31.8325 32.6315C31.8258 32.6677 31.8225 32.7502 31.8325 32.7667C31.8225 33.8819 31.8158 34.5187 32.8289 34.5022H32.8556C33.2401 34.4923 34.3201 34.5352 35.0022 34.522C35.6341 34.5088 35.7946 34.3108 35.7913 33.7697L35.798 29.1903L36.2861 29.187C36.7108 29.1837 36.8144 29.276 36.908 29.3585C37.0017 29.441 37.0886 29.5829 37.1053 29.9326C37.1053 29.9326 37.0953 33.387 37.102 33.4101C37.0919 34.4164 37.5567 34.7133 37.9713 34.7034C38.0649 34.7067 40.1948 34.6737 40.1948 34.6737C40.83 34.6605 40.9872 34.4626 40.9838 33.9215L40.9872 29.2134C40.9872 29.2167 40.9805 29.6753 40.9805 29.6687Z" fill="#F6C900"/>
<path fill-rule="evenodd" clip-rule="evenodd" d="M20.5547 22.3706L20.568 32.2256C20.5781 32.2619 20.5781 32.2916 20.5647 32.3147L20.5647 32.3187C20.5747 33.428 20.5802 34.0337 19.5683 34.0535H19.5416C19.5416 34.0535 18.4181 34.0271 17.8163 34.004C17.1844 33.9809 17.0239 33.806 17.0272 33.2682L17.0473 30.0316C17.0473 29.9423 17.048 29.8589 17.0488 29.7811C17.0525 29.3728 17.0549 29.1187 16.9369 28.9857C16.7965 28.8306 16.626 28.7581 16.3117 28.7581H16.2883C15.964 28.7746 15.8269 28.8603 15.6831 29.0253C15.5703 29.1574 15.5748 29.387 15.582 29.7492C15.584 29.8485 15.5861 29.9578 15.5861 30.0778L15.5995 33.1593C15.6029 33.7004 15.4424 33.9017 14.8104 33.9116C14.4284 33.919 14.0694 33.9015 13.76 33.8865C13.5169 33.8747 13.3044 33.8643 13.1353 33.8687H13.1086C12.114 33.8849 12.1183 33.421 12.1283 32.349C12.1285 32.329 12.1287 32.3088 12.1289 32.2883C12.1189 32.2685 12.1222 32.2355 12.1289 32.1992L12.1389 22.0308C12.1356 21.1399 12.3663 19.9951 14.0213 19.9654H14.0748L18.6689 20.0347C18.699 20.0314 18.7191 20.0314 18.7224 20.0314C20.4376 19.9984 20.558 21.3643 20.5547 22.3706ZM17.191 25.4587L17.2111 24.2479C17.2111 24.1586 17.2119 24.0752 17.2126 23.9974C17.2164 23.5891 17.2187 23.335 17.1008 23.202C16.9603 23.0469 16.7898 22.8985 16.4755 22.8952H16.4521C16.1278 22.9117 15.9907 22.9645 15.8436 23.1294C15.7308 23.2615 15.7353 23.4911 15.7425 23.8533C15.7445 23.9527 15.7466 24.0619 15.7466 24.1819L15.76 25.3796L17.191 25.4587Z" fill="#F6C900"/>
<path fill-rule="evenodd" clip-rule="evenodd" d="M10.8549 20.7737C10.8583 19.7014 10.3032 19.8565 9.33027 19.84C9.29349 19.8367 8.84211 19.8466 8.81871 19.8466C8.34727 19.8565 7.98616 19.7047 7.63843 20.0182C7.28736 20.3283 7.31745 20.7143 7.32079 21.2158V29.8864C7.32748 30.2724 7.31076 30.4638 7.28736 30.4836C7.26729 30.4935 7.26061 30.6551 7.07337 30.6716C7.05331 30.6716 6.28429 30.6881 6.26757 30.6848C6.03686 30.6914 6.11711 30.5364 6.10039 30.4605C6.06027 30.4077 6.21742 29.5136 5.89309 29.0715C5.64901 28.7613 5.23775 28.702 4.6426 28.6954L2.9775 28.725C2.73677 28.7283 2.54284 28.9164 2.54619 29.1441L2.55287 31.5955C2.55287 31.8264 2.67324 32.1596 2.81701 32.3411L3.68968 33.4299C3.83346 33.608 4.14775 33.7532 4.38849 33.7499L7.4445 33.6872C8.59803 33.6641 9.47405 33.8687 10.1695 33.2352C10.8683 32.6017 10.865 31.6812 10.8616 30.6222V20.7737H10.8549Z" fill="#F6C900"/>
<path fill-rule="evenodd" clip-rule="evenodd" d="M26.3626 22.9545C26.7471 22.9479 27.0614 23.3175 27.0614 23.786V25.4059C27.0948 25.8942 27.2754 26.4683 28.0243 26.4551L29.6158 26.4287C30.3615 26.4155 30.5286 25.8348 30.5621 25.3432L30.5721 21.8295C30.5721 21.6117 30.4618 21.295 30.328 21.1267L29.7429 20.3811C29.6092 20.2128 29.3183 20.0775 29.1009 20.0808L23.3968 20.0511C23.1795 20.0577 22.8819 20.1963 22.7415 20.3646L22.0895 21.13C21.9457 21.2983 21.832 21.6117 21.832 21.8295V32.45C21.832 32.6677 21.9424 32.9812 22.0828 33.1494L22.7415 33.9512C22.8786 34.1194 23.1695 34.2547 23.3868 34.2547L28.8335 34.3933C29.0541 34.3933 29.355 34.2613 29.5055 34.0996L30.3013 33.2418C30.4517 33.0801 30.5721 32.77 30.5721 32.5523L30.5387 29.0055C30.5052 28.5172 30.3247 27.9431 29.5757 27.9563L28.0343 27.9893C27.2887 28.0025 27.1048 28.5832 27.0714 29.0748L27.0614 30.3318C27.0614 30.797 26.7471 31.183 26.3626 31.1896C25.9747 31.1962 25.6638 30.8234 25.6638 30.3582V23.8124C25.6638 23.3439 25.9747 22.9611 26.3626 22.9545Z" fill="#F6C900"/>
</svg>
