<svg width="67" height="67" viewBox="0 0 67 67" fill="none" xmlns="http://www.w3.org/2000/svg">
<path d="M36.5882 0.599976L43.6383 13.5251L58.9134 10.2351L54.2134 25.2081L66.4 33.4332L52.7027 41.6918L54.6163 56.6649L39.9454 53.3413L30.5117 66.3L23.4616 53.3413L8.15289 56.6649L12.8865 41.6918L0.699951 33.4332L14.3972 25.2081L12.4837 10.2351L27.1545 13.5251L36.5882 0.599976Z" fill="#FDC300"/>
<path d="M32.0284 22.0293C32.5674 21.7227 33.1063 21.4502 33.679 21.1778C34.4874 20.8031 35.3633 20.5306 36.3402 20.2581C37.7886 19.8835 39.2708 19.6451 40.8203 19.611C41.6288 19.5769 42.4372 19.6791 43.212 19.9175H43.2457C44.391 20.3263 44.8963 20.6328 45.7384 21.5524L45.9742 21.893L45.5363 18.9979L46.6816 18.7935C46.2774 18.5551 45.9069 18.2145 45.6037 17.7717C45.2668 17.2608 45.0647 16.7159 45.031 16.1028C44.8963 14.1614 46.5132 12.5605 48.3659 12.3221C50.2186 12.1178 52.3408 13.3439 52.4419 15.3535C52.5092 16.3753 52.105 17.329 51.465 18.0102L52.644 17.8058L55.1367 33.6778L48.9386 34.6656L49.107 36.028L50.1512 35.8577L50.3197 37.0838C51.1955 35.9939 52.3071 35.5171 53.6882 35.2786C54.8672 35.0743 55.9789 35.2446 57.0568 35.7555C58.8758 36.6411 59.6843 38.4122 59.9874 40.3195C60.1896 41.5798 60.1559 42.9081 59.5832 44.0662C58.7411 45.7692 57.1579 46.825 55.3051 47.0635C54.5304 47.1656 53.7556 47.0975 53.0482 46.8591C52.8124 46.791 52.6103 46.6888 52.3745 46.5866C51.9703 46.825 51.5997 47.0294 51.1955 47.2338C50.5892 47.5403 50.0165 47.8128 49.3428 47.915C48.568 48.0171 47.8269 47.9831 47.1195 47.7447C46.9511 47.6765 46.8164 47.6425 46.6816 47.5403C46.4121 47.6765 46.1763 47.8128 45.9069 47.949L45.5363 48.1534C44.93 48.4599 44.3573 48.7324 43.6836 48.8346C42.5383 49.0049 41.4267 48.8346 40.4835 48.1193C39.9445 47.7106 39.574 47.2338 39.3382 46.7228C39.2708 46.8932 39.2034 47.0635 39.1024 47.2678C38.2602 48.9708 36.677 50.0267 34.8243 50.2651C33.6453 50.4354 32.5 50.1629 31.4894 49.5498L31.6242 50.5035L23.3375 51.9L21.3837 38.8209L20.71 36.062L20.4406 34.7677L20.1711 36.3345L19.7332 38.9912L15.6909 39.5362L13.9729 35.8917L14.3098 39.8768L7.87582 40.7964L7 21.5184L13.535 20.5306L16.1625 26.389L17.1394 20.0197L23.6744 19.032L24.4828 22.3699L24.7186 22.3358L26.066 22.1314C25.1902 21.6546 24.5165 20.8031 24.3144 19.7132C23.9439 17.6355 25.7629 15.9325 27.683 15.7622C29.5693 15.5919 31.321 16.6818 31.5905 18.6573C31.6915 19.4748 31.5231 20.2581 31.0852 20.9053C30.9505 21.0756 30.8494 21.2459 30.681 21.4162L31.86 21.2118L32.0284 22.0293ZM37.6202 36.5048L34.3864 36.9817V37.0157L27.1777 38.1738L28.424 46.3482C28.6262 46.3141 28.862 46.2801 29.0641 46.246C28.963 45.9395 28.8956 45.6329 28.8283 45.2923C28.4914 43.5893 28.6935 41.7501 29.8051 40.3536C30.7147 39.2296 31.8263 38.7187 33.2074 38.4803C34.3864 38.2759 35.498 38.4462 36.576 38.9571C36.7781 39.0593 36.9802 39.1615 37.1486 39.2977L36.9465 37.9353L37.7886 37.7991L37.6202 36.5048Z" fill="#FDC300"/>
<path d="M49.1851 33.006L47.1328 19.6651L51.8189 18.9145L53.9396 32.2553L49.1851 33.006ZM22.0607 37.0321L21.7187 35.4285L21.1372 32.733L20.2821 29.1163L20.0426 27.6491L19.9742 26.9668L19.94 27.6491L19.7348 29.0822L19.1533 32.8695L18.6744 35.7697L18.4008 37.5098L16.1775 37.8168L14.1936 33.6201L12.5518 30.1399L11.765 28.1951L11.8335 28.8092L12.0045 30.2764L12.2439 33.9613L12.6202 38.4651L8.68661 39.011L7.8999 22.19L12.4491 21.5076L15.8696 29.0481L16.5537 30.8905L16.5879 30.2764L16.7247 28.9798L18.0245 20.6887L22.5738 20.0063L26.6784 36.3497L22.0607 37.0321ZM50.7586 41.5018C50.4849 40.137 50.6217 38.704 51.5111 37.6121C52.2294 36.6909 53.1529 36.3838 54.179 36.2132C55.1026 36.0767 55.9577 36.1791 56.8128 36.5885C58.2494 37.305 58.8309 38.7381 59.1045 40.2393C59.2756 41.3312 59.2414 42.3548 58.7967 43.2078C58.181 44.4361 56.9838 45.2891 55.4446 45.4938C54.2817 45.6303 53.2897 45.3232 52.4688 44.6408C51.4427 43.8219 50.998 42.7301 50.7586 41.5018ZM24.2156 50.1L22.4712 38.4992L25.8232 38.0216L27.1914 47.4045C28.0808 47.268 28.9359 47.1657 29.8252 47.0292L30.133 49.1105L24.2156 50.1ZM29.962 44.6749C29.6884 43.3101 29.8252 41.8771 30.7145 40.7853C31.4328 39.864 32.3564 39.5569 33.3825 39.3863C34.306 39.2499 35.1612 39.3522 36.0163 39.7617C37.4529 40.4782 38.0344 41.9112 38.308 43.4125C38.479 44.5043 38.4448 45.5279 38.0002 46.3809C37.3845 47.6092 36.1873 48.4622 34.6481 48.6669C33.4851 48.8034 32.4932 48.4963 31.6723 47.8139C30.6461 46.9951 30.2015 45.9032 29.962 44.6749ZM33.1431 41.7065C32.9036 42.0818 32.9378 42.5254 32.9378 43.0372C32.972 43.276 33.0062 43.5148 33.0405 43.7537C33.0747 43.9925 33.1089 44.1972 33.1431 44.4361C33.1773 44.7431 33.2457 45.0843 33.3483 45.3914C33.5193 45.9373 33.8614 46.6197 34.5455 46.5174C34.9217 46.4491 35.1612 46.2103 35.2638 45.835C35.4006 45.2891 35.298 44.6749 35.2296 44.1631C35.1954 43.9243 35.1612 43.6854 35.127 43.4125C34.9901 42.6618 34.7507 41.8089 34.3402 41.4335C34.135 41.2629 33.964 41.2971 33.793 41.2971C33.5193 41.3312 33.3141 41.4335 33.1431 41.7065ZM38.4106 38.6357L39.2657 38.4992L38.9921 36.725L42.1047 35.3943L42.4468 37.9874L43.5071 37.8168L43.815 40.0005L42.7546 40.1711L43.2335 43.4807C43.2677 43.7878 43.3361 44.0266 43.4045 44.2996C43.4729 44.6067 43.644 44.8796 43.986 44.9479C44.2254 45.0161 44.4649 44.9138 44.7727 44.7432L45.0806 46.6539C44.4991 46.9609 44.0886 47.1315 43.5755 47.1998C42.6862 47.3363 41.8995 47.1998 41.2838 46.7221C40.4629 46.1079 40.2577 45.2891 40.1209 44.3678L39.5736 40.5805L38.7185 40.717L38.4106 38.6357ZM44.157 37.7486L45.0121 37.6121L44.7385 35.8379L47.8511 34.5072L48.1932 37.1686L49.2535 36.998L49.5614 39.1475L48.501 39.3181L48.9457 42.5936C48.9799 42.9007 49.0483 43.1395 49.1167 43.4125C49.1851 43.7196 49.3562 43.9925 49.6982 44.0608C49.9376 44.129 50.1771 44.0266 50.4849 43.8219L50.7928 45.7326C50.2113 46.0397 49.8008 46.2103 49.2877 46.2785C48.3984 46.415 47.6117 46.2785 46.996 45.8009C46.1751 45.1867 45.9699 44.3678 45.8331 43.4466L45.32 39.7275L44.4649 39.864L44.157 37.7486ZM53.9396 38.5334C53.7002 38.9087 53.7344 39.3522 53.7344 39.864C53.7686 40.1029 53.8028 40.3417 53.837 40.5805C53.8712 40.8194 53.9054 41.0241 53.9396 41.2629C53.9738 41.57 54.0422 41.9112 54.1448 42.2183C54.3159 42.7642 54.6579 43.4466 55.342 43.3442C55.7183 43.276 55.9577 43.0372 56.0603 42.6618C56.1971 42.1159 56.0945 41.5359 56.0261 40.99C55.9919 40.7511 55.9577 40.5123 55.9235 40.2393C55.7867 39.4887 55.5472 38.6357 55.1026 38.2604C54.8973 38.0898 54.7263 38.1239 54.5553 38.1239C54.3159 38.158 54.1106 38.2604 53.9396 38.5334ZM51.4084 15.059C51.4769 16.3555 50.4165 17.345 49.2193 17.5497C48.1248 17.7203 47.3039 17.3791 46.825 16.6626C46.5856 16.3214 46.483 15.9802 46.4487 15.639C46.3803 14.3424 47.5091 13.353 48.7063 13.2165C49.835 13.08 51.34 13.7965 51.4084 15.059ZM25.3786 18.9827C25.1391 17.6862 26.4047 16.6626 27.6703 16.5261C29.0043 16.3896 30.0988 17.1061 30.2699 18.3003C30.3383 18.8121 30.2015 19.2898 29.962 19.6651C29.5174 20.3475 28.7648 20.7228 27.9781 20.7911C26.8152 20.9276 25.618 20.3134 25.3786 18.9827ZM42.3784 34.0978L41.0102 25.1925C40.9418 24.8172 40.8734 24.5442 40.7365 24.2372C40.6681 24.0666 40.5655 23.9642 40.4971 23.8619C39.984 23.3501 39.1631 23.5889 38.4448 23.7595L37.9659 23.896L39.6078 34.4731L34.9217 35.1555L32.9378 22.4971L33.4851 22.19C35.1612 21.3029 36.9056 20.8934 38.7527 20.6205C40.1209 20.4158 41.5917 20.2793 42.9256 20.6887L43.4045 20.8593C44.8753 21.3711 45.4568 22.6677 45.7647 24.0666L47.2013 33.313L42.3784 34.0978ZM28.115 36.2814L25.9943 22.9406L30.7487 22.19L32.8694 35.5308L28.115 36.2814Z" fill="white"/>
</svg>
