<svg width="78" height="60" viewBox="0 0 78 60" fill="none" xmlns="http://www.w3.org/2000/svg">
<path d="M65.5099 8.62775L68.4183 11.7967L71.8477 10.451L66.682 22.0413L75.4507 31.6349L61.1255 30.2023L59.8232 31.6349C60.8217 40.4036 56.3939 46.1771 51.8793 48.0437C50.0127 48.7817 48.3631 49.0421 46.8872 49.0421C40.6796 49.0421 37.858 43.9198 37.858 43.9198C35.2534 46.7848 32.6488 47.6964 30.3915 47.6964C26.5715 47.6964 23.8367 45.0918 23.8367 45.0918C20.798 48.7383 18.1934 49.7801 15.8927 49.7801C9.59829 49.9971 8.77351 43.312 8.77351 43.312C5.69142 47.1755 6.55962 55.5102 12.5067 58.2015C12.5067 58.2015 4.51936 56.9861 2.13183 49.9103C-0.950249 40.6641 3.26048 31.2008 12.7238 23.3002C18.3236 18.6554 27.266 14.1842 32.6054 12.0137C42.8501 7.80297 52.487 5.6759 55.3955 5.63249C55.5257 5.63249 55.6559 5.63249 55.7427 5.63249H56.09C56.1768 5.63249 56.2636 5.63249 56.2636 5.63249L56.4373 2.63722L60.8651 5.41544L68.2447 2.20312L65.5099 8.62775Z" fill="#E65A01"/>
<path d="M26.7016 18.8716C26.7016 18.7847 26.7016 18.7413 26.6582 18.6979C26.6148 18.6111 26.4412 18.6111 26.2675 18.6979C26.2241 18.6979 25.3559 19.0886 25.3559 19.0886L25.3125 19.87L26.0939 19.5227C26.4846 19.3491 26.7016 19.132 26.7016 18.8716Z" fill="#E65A01"/>
<path d="M26.6586 20.5664C26.5718 20.5664 26.4416 20.6098 26.3114 20.6532L25.3129 21.0873L25.2695 21.9121L25.9641 21.6516L26.268 21.5214C26.6586 21.3912 26.8757 21.1307 26.8757 20.8703C26.8757 20.6532 26.7889 20.5664 26.6586 20.5664Z" fill="#E65A01"/>
<path d="M41.8529 10.668C37.2081 12.0571 33.7353 13.3159 33.7353 13.3159L32.9539 14.271L33.0407 13.5764L29.2641 15.0089L29.0471 16.6585C28.83 16.398 28.5695 16.2244 28.2223 16.1376C28.092 16.0942 27.9184 16.0942 27.7882 16.0942C27.3107 16.0942 26.7463 16.2678 26.0952 16.5717C26.0952 16.5717 25.0534 17.0058 23.9247 17.6569C22.7527 18.3081 21.2333 19.1328 21.2333 19.1328L20.886 20.0879L20.4954 19.5669L14.8521 23.387L14.8955 23.7343C14.6785 23.7777 13.5498 24.1249 12.6816 25.4706C12.4646 25.8179 12.0305 26.5559 12.2041 27.5543C12.2475 27.945 12.4212 28.2489 12.6816 28.4659L12.4646 30.3759L13.4196 30.4193C13.68 30.4193 14.2878 30.3325 15.156 29.6814C15.4598 29.4643 15.7203 29.1605 15.9373 28.8566C15.9373 28.8566 18.9326 26.8163 22.6658 25.08C26.92 23.1265 32.0423 21.7374 32.0423 21.7374L32.1725 20.4351L32.9973 21.4335C32.9973 21.4335 34.343 21.0429 35.4283 20.8258C36.6003 20.6088 37.7724 20.3483 40.2901 19.9576C42.2436 19.6538 48.8853 18.8724 48.8853 18.8724L50.1875 14.7919L49.3194 14.9221L50.1441 12.3175L50.7953 12.1873L52.0976 7.97656C52.0542 8.01997 46.4977 9.23544 41.8529 10.668ZM15.7203 27.4241C15.6335 27.6845 15.5467 27.9884 15.3296 28.2489C15.0257 28.683 14.6785 28.9434 14.6351 28.9868C14.418 29.1605 14.1575 29.3341 13.9405 29.4209C13.5498 29.5946 13.3762 29.5511 13.3762 29.5511L13.5064 28.4659C13.6366 28.4659 14.1575 28.4225 14.6785 27.8582C14.7653 27.7714 14.8087 27.6845 14.8087 27.5977C14.8087 27.5109 14.8087 27.5109 14.7653 27.4675C14.7219 27.4241 14.6785 27.4675 14.6785 27.4675C14.6351 27.4675 14.5482 27.5109 14.418 27.5543C14.201 27.6411 13.9405 27.8148 13.7235 27.8582C13.6366 27.945 13.5498 27.945 13.5064 27.945C13.1591 27.945 13.0723 27.6411 13.0289 27.4241C12.9855 27.207 12.9855 26.99 13.0723 26.7295C13.1157 26.5993 13.2459 26.0784 13.7235 25.5141C14.0707 25.1234 14.3746 24.9063 14.6351 24.7761C14.9389 24.6025 15.1126 24.559 15.1994 24.559L15.1126 25.3838L15.0691 25.6877C14.7653 25.7311 14.4614 25.9047 14.2444 26.1218C14.0273 26.3388 13.8971 26.5125 13.9405 26.6427C13.9405 26.6861 13.9839 26.7295 14.0273 26.7295H14.0707C14.1575 26.6861 14.2878 26.6427 14.4614 26.5559C14.6785 26.4257 14.8955 26.3388 15.0257 26.252C15.0692 26.252 15.0691 26.252 15.1126 26.2086C15.2428 26.1652 15.373 26.1652 15.5032 26.2086C15.5901 26.252 15.6335 26.2954 15.6769 26.3822C15.7203 26.4691 15.7637 26.5559 15.8071 26.6861C15.7637 26.9032 15.7637 27.1636 15.7203 27.4241ZM16.111 27.7714L16.0242 26.9466L17.2396 23.8211L15.8505 24.8195L15.7203 23.7777L18.2381 21.9545L18.7156 22.5622L17.4133 25.7745L19.1062 24.6893L19.2365 25.8179L16.111 27.7714ZM21.7976 22.8227L21.8845 24.6025L20.4954 25.2102L20.4085 23.5172L19.4969 22.3017L18.8892 21.477L20.2349 20.6956L21.1031 21.8242L21.8845 19.7406L23.2736 18.9158L21.7976 22.8227ZM28.4393 21.2599C28.3959 21.3467 28.3525 21.4335 28.2657 21.477C28.2223 21.5638 28.1355 21.6506 28.0486 21.7374C27.6579 22.1715 27.0502 22.5188 26.3557 22.7792L23.6208 23.7777L23.7077 21.8242L23.7945 19.9142L23.8379 18.6119L24.3588 18.3515L26.3991 17.353C26.9634 17.0926 27.3975 16.9624 27.7448 16.9624C27.8316 16.9624 27.9184 16.9624 28.0052 17.0058C28.3959 17.0926 28.5695 17.353 28.5261 17.8305C28.5261 18.091 28.4393 18.3515 28.3091 18.6553C28.1789 18.9158 27.9618 19.1762 27.7014 19.3933H27.7882C27.8316 19.3933 27.8316 19.3933 27.875 19.3933C27.9184 19.3933 27.9184 19.3933 27.9618 19.3933C28.1789 19.4367 28.3091 19.4801 28.4393 19.6103L28.4827 19.6538L28.5261 19.6972C28.5261 19.6972 28.5261 19.6972 28.5261 19.7406C28.5261 19.784 28.5695 19.784 28.5695 19.8274C28.6564 19.9576 28.6564 20.1313 28.6564 20.3483C28.6998 20.6522 28.613 20.956 28.4393 21.2599ZM33.3446 20.6088L31.9555 18.9158L31.3912 19.6103L31.1741 21.1731L29.1773 21.694L29.9587 15.6167L31.9989 14.8353L31.695 17.136L34.1694 14.0105L36.8608 13.0121L33.5617 17.0058L36.1228 19.9142L33.3446 20.6088ZM39.2483 19.3499L36.6003 19.8274L37.3817 16.2244L38.1197 12.6648L40.8979 11.7966L40.1165 15.443L39.2483 19.3499ZM50.1007 11.4927L45.0218 12.6214L44.7179 13.6198L49.1023 12.7082L48.7984 13.6198L48.4078 14.8353L44.1102 15.6167L43.8063 16.7019L48.9287 15.8337L48.2341 18.091L40.2467 19.1762L41.4188 15.0957L42.5475 11.2757L50.8387 9.14862L50.1007 11.4927Z" fill="#E65A01"/>
<path d="M57.7402 33.1116V32.4604L56.5247 33.8061C56.5247 33.8061 56.4813 34.8045 56.4813 34.9782C56.3511 36.1502 56.0038 37.4091 55.7433 38.0168C55.6999 38.1037 55.6565 38.2339 55.6131 38.3207C54.962 40.1873 54.0069 41.7935 52.8783 43.0089C51.6194 44.3546 50.1869 45.2662 48.6676 45.6135C47.235 45.9608 45.8025 45.874 44.3266 45.3531C42.9375 44.8756 41.8088 44.0942 40.9406 43.0089C39.9856 41.7935 39.6384 41.1423 39.2477 39.1455C39.074 38.2773 39.0306 37.2789 39.074 36.3673C39.1174 35.282 39.4647 33.5022 39.6384 32.8945C39.9422 31.5922 40.5065 30.3767 41.2011 29.3349C42.0693 28.0326 43.1545 27.121 44.4568 26.4699C44.6739 26.3396 44.9343 26.2528 45.1514 26.166C45.325 26.0792 45.5421 26.0358 45.7157 25.9924C46.28 25.8187 46.7575 25.7319 47.0614 25.6885C47.2785 25.6451 47.4087 25.6451 47.4087 25.6451L46.3234 25.211L45.4118 24.8203C44.9343 24.994 44.4134 25.1676 43.9359 25.3846C42.4166 26.1226 41.2011 27.1644 40.2027 28.6404C39.5081 29.6822 38.9438 30.8543 38.5531 32.2434C38.4229 31.462 38.2493 30.724 37.9888 30.0729C37.3376 28.4667 36.2524 27.2513 34.8199 26.5133C33.4742 25.8187 31.9549 25.5583 30.2619 25.7319C28.6991 25.9056 27.31 26.4265 26.0946 27.2947C24.9225 28.1194 24.0543 29.2047 23.4466 30.5938C22.8388 31.9395 22.4916 33.4154 22.4481 35.2386C22.4481 35.6293 22.4481 35.9766 22.4481 36.3673C22.4481 36.5409 22.4481 36.7146 22.4916 36.8448V36.975C21.3195 35.4991 19.4529 35.1518 18.2374 35.4557C17.8901 35.6293 17.456 35.7595 17.456 35.7595C18.9754 34.6743 20.104 34.327 21.1024 34.0232L22.9691 28.1629C11.1182 32.1131 9.46866 39.7532 9.77253 43.0089C10.1632 47.3933 13.636 49.9979 18.3242 47.9576C21.2761 46.6554 23.2295 43.964 23.5334 41.0989C23.9675 42.0539 24.5752 42.8787 25.2698 43.5299C26.2682 44.4849 27.4403 45.0492 28.8728 45.3097C29.3503 45.3965 29.7844 45.4399 30.2619 45.4399C31.2169 45.4399 32.1719 45.2228 33.0835 44.8322C34.4726 44.2244 35.6881 43.1392 36.6865 41.6198C37.2942 40.7082 37.7283 39.7098 38.0756 38.5812C38.119 38.8416 38.1624 39.1455 38.2058 39.4059C38.6399 41.6632 39.074 42.488 40.1159 43.8337C41.1143 45.0926 42.4166 46.0042 44.0227 46.5685C45.0211 46.9158 46.0196 47.0895 47.018 47.0895C47.7125 47.0895 48.3637 47.0026 49.0582 46.829C50.7946 46.3949 52.4008 45.3965 53.8333 43.8337C55.0922 42.488 56.0906 40.7516 56.8286 38.7114C56.872 38.5812 56.9154 38.4509 56.9588 38.3641C57.0456 38.1471 57.089 37.93 57.1758 37.6696C57.5665 36.0634 57.7836 34.5441 57.7402 33.1116ZM17.7165 47.046C13.9399 48.4352 11.2919 46.6988 10.8578 43.1826C10.4671 40.4478 11.3353 38.3641 12.681 36.3239C13.8964 34.5007 16.1972 32.1131 21.5365 29.7256L20.4079 33.4154C17.2824 34.5007 15.0251 36.2805 14.1569 38.9284C14.1569 38.9284 15.546 37.1052 17.3258 36.5843C19.7567 35.8898 21.7102 36.8014 22.1443 39.84C22.535 42.7485 20.7552 45.9174 17.7165 47.046ZM37.3376 35.8464C37.2942 36.02 37.2942 36.1502 37.2508 36.3239C36.947 38.1471 36.3826 39.7098 35.5144 41.0121C34.6462 42.3144 33.6478 43.2694 32.4758 43.7469C31.3471 44.2244 30.2185 44.3546 29.003 44.1376C27.8309 43.9205 26.8325 43.443 26.0077 42.6617C25.183 41.9237 24.6186 40.9253 24.1845 39.6664C24.0109 39.1021 23.8807 38.5378 23.7504 37.93C23.6636 37.4525 23.6202 36.9316 23.6202 36.4107C23.6202 36.0634 23.6202 35.7161 23.6202 35.3689C23.6636 33.7193 23.9675 32.3736 24.5318 31.2015C25.0961 29.9861 25.8341 29.0745 26.7891 28.3799C27.8309 27.6419 29.003 27.1644 30.3921 27.0342C30.696 26.9908 30.9564 26.9908 31.2603 26.9908C32.3455 26.9908 33.344 27.2513 34.2556 27.6853C35.4276 28.2931 36.2958 29.2915 36.8601 30.6372C37.1206 31.3318 37.3376 32.0697 37.3811 32.8945C37.5113 33.8061 37.4679 34.8045 37.3376 35.8464Z" fill="#E65A01"/>
<path d="M16.5442 39.4922C15.6326 39.7526 14.9814 40.2735 14.721 41.3588C14.2869 43.4424 15.3287 45.0486 17.1953 44.5711H17.2387C18.4108 44.1804 19.1054 42.8781 18.9751 41.4022C18.8015 39.9697 17.8899 39.1015 16.5442 39.4922ZM16.8046 43.7029C16.1101 43.8331 15.5024 43.3122 15.4155 42.5308C15.2853 41.4022 15.676 40.4906 16.8046 40.3169C17.586 40.1867 18.1069 40.8378 18.1069 41.706C18.1069 42.9215 17.6728 43.5292 16.8046 43.7029Z" fill="#E65A01"/>
<path d="M45.0215 30.071C44.4138 30.7221 43.9363 31.6771 43.5456 32.9794C43.4154 33.4135 43.2851 33.891 43.1549 34.4119C42.9813 35.1065 42.8944 35.801 42.8076 36.3654C42.6774 37.494 42.7208 38.449 42.9379 39.187C43.2851 40.4459 44.0231 41.2706 45.1517 41.5745C45.3688 41.6179 45.6293 41.7047 45.9331 41.7047C46.6277 41.7047 47.4525 41.4443 48.3207 40.5761C49.0586 39.8381 49.6663 38.6661 50.1873 37.1033C50.3175 36.7126 50.4477 36.2785 50.5345 35.8878C50.6214 35.584 50.6648 35.2801 50.7516 34.9762C51.1423 33.1964 51.0989 31.8507 50.7516 30.8523C50.2741 29.6369 49.4059 28.8989 48.1904 28.7687C46.9315 28.6818 45.8897 29.1159 45.0215 30.071ZM47.7129 29.9841C47.7997 29.9841 47.8866 29.9841 48.0168 29.9841C48.7982 30.071 49.3191 30.505 49.6229 31.2864C49.7532 31.6337 49.84 32.1112 49.84 32.6321C49.84 33.2399 49.7532 33.9344 49.5795 34.7158C49.5361 34.9762 49.4493 35.2801 49.3625 35.584C49.2757 35.9747 49.1454 36.3653 49.0152 36.7126C48.5811 38.0583 48.0168 39.1002 47.4525 39.7079C46.5843 40.5761 45.9331 40.5327 45.499 40.4024C44.8045 40.2288 44.3704 39.7079 44.1099 38.8397C43.9363 38.232 43.8929 37.4506 44.0231 36.4956C44.0665 35.9313 44.1967 35.3235 44.327 34.6724C44.4138 34.1949 44.544 33.7174 44.6742 33.3267C45.0215 32.2414 45.4122 31.4167 45.8897 30.8957C46.454 30.288 47.0184 29.9841 47.7129 29.9841Z" fill="#E65A01"/>
<path d="M32.5187 31.0708C31.9978 30.0724 31.1296 29.5514 30.0444 29.6383C29.0026 29.6817 28.1778 30.2026 27.57 31.1576C27.0491 31.9824 26.7018 33.1978 26.5716 34.8908V35.1079C26.5282 35.9761 26.5282 36.7574 26.5716 37.4086C26.6584 38.1031 26.7887 38.7109 27.0057 39.1884C27.4832 40.2736 28.2212 40.8379 29.1762 40.9682C29.263 40.9682 29.3498 40.9682 29.4801 40.9682C30.1312 40.9682 30.9994 40.7077 31.7374 39.6225C32.1715 38.9713 32.5187 38.0163 32.7792 36.8443C32.866 36.3667 32.9528 35.8892 32.9962 35.3249C33.0831 34.6304 33.0831 34.0226 33.0831 33.5017C32.9962 32.5033 32.8226 31.6785 32.5187 31.0708ZM31.7808 35.2381C31.694 35.759 31.6505 36.1931 31.5637 36.6272C31.3901 37.6256 31.0862 38.4504 30.7389 38.9279C30.1746 39.7527 29.6537 39.7961 29.3064 39.7527C28.9592 39.7093 28.4816 39.5791 28.091 38.7109C27.9173 38.3636 27.8305 37.8861 27.7437 37.2783C27.7003 36.6706 27.6569 35.9761 27.7437 35.1947V34.9776C27.8739 33.5017 28.1344 32.4599 28.5251 31.8087C28.9157 31.1576 29.4367 30.8537 30.0444 30.8537C30.0878 30.8537 30.0878 30.8537 30.1312 30.8537C30.6955 30.8537 31.0862 31.1142 31.3901 31.6785C31.6071 32.1126 31.7808 32.7637 31.7808 33.5885C31.7808 33.6754 31.7808 33.7622 31.7808 33.8924C31.8242 34.2831 31.8242 34.7606 31.7808 35.2381Z" fill="#E65A01"/>
<path d="M37.4249 32.8959C37.3381 32.0711 37.1645 31.3331 36.904 30.6386C36.3397 29.2929 35.4715 28.2945 34.2994 27.6867C33.3878 27.2092 32.3894 26.9922 31.3042 26.9922C31.0437 26.9922 30.7398 26.9922 30.436 27.0356C29.0469 27.1658 27.8748 27.5999 26.833 28.3813C25.878 29.0758 25.0966 30.0309 24.5757 31.2029C24.0113 32.375 23.7509 33.7207 23.6641 35.3702C23.6641 35.7175 23.6641 36.0648 23.6641 36.4121C23.6641 36.933 23.7075 37.4539 23.7943 37.9314C23.8811 38.5392 24.0113 39.1469 24.2284 39.6678C24.6625 40.9267 25.2268 41.9251 26.0516 42.6631C26.8764 43.4444 27.8748 43.9219 29.0469 44.139C30.3057 44.356 31.4344 44.2258 32.5196 43.7483C33.6917 43.2274 34.7335 42.3158 35.5583 41.0135C36.3831 39.7112 36.9908 38.1485 37.2947 36.3253C37.3381 36.1516 37.3381 36.0214 37.3815 35.8478C37.4683 34.8059 37.5117 33.8075 37.4249 32.8959ZM32.9537 35.3702C32.9103 35.8912 32.8235 36.4121 32.7367 36.8896C32.5196 38.0616 32.1723 39.0167 31.6948 39.6678C30.9569 40.753 30.0887 41.0135 29.4375 41.0135C29.3507 41.0135 29.2205 41.0135 29.1337 41.0135C28.1353 40.8833 27.3973 40.3189 26.9632 39.2337C26.7461 38.7562 26.6159 38.1485 26.5291 37.4539C26.4423 36.8028 26.4423 36.0214 26.5291 35.1532V34.9362C26.6593 33.2432 26.9632 32.0277 27.5275 31.2029C28.1353 30.2479 29.0034 29.727 30.0019 29.6836C31.0871 29.6402 31.9553 30.1177 32.4762 31.1161C32.8235 31.7238 32.9971 32.5052 32.9971 33.5905C33.0405 34.068 33.0405 34.7191 32.9537 35.3702Z" fill="white"/>
<path d="M54.094 36.3658L52.0537 27.5537L47.4089 25.7305C47.4089 25.7305 47.2787 25.7305 47.0616 25.7739C46.7578 25.8173 46.2802 25.9041 45.7159 26.0777C45.5423 26.1212 45.3252 26.208 45.1516 26.2514C44.9346 26.3382 44.7175 26.425 44.457 26.5553C43.1548 27.2064 42.0695 28.118 41.2013 29.4203C40.5068 30.4187 39.9424 31.6342 39.6386 32.9799C39.5083 33.5876 39.1611 35.3674 39.0743 36.4526C39.0308 37.3642 39.0742 38.3627 39.2479 39.2309C39.6386 41.2277 39.9424 41.9223 40.9409 43.0943C41.8091 44.1796 42.8943 44.9609 44.3268 45.4384C45.8027 45.9594 47.1919 46.0462 48.6244 45.6989C50.1437 45.3082 51.5328 44.44 52.8351 43.0943C54.0072 41.8354 54.9188 40.2727 55.5699 38.4061C55.6133 38.2759 55.6567 38.189 55.7001 38.1022C55.9172 37.4945 56.3079 36.2356 56.4381 35.0635C56.4381 34.8899 56.4815 33.8915 56.4815 33.8915L54.094 36.3658ZM50.708 35.0201C50.6646 35.324 50.5778 35.6279 50.491 35.9317C50.4042 36.3658 50.2739 36.7565 50.1437 37.1472C49.6228 38.7099 49.0151 39.882 48.2771 40.62C47.4523 41.4882 46.5841 41.7486 45.933 41.7486C45.6291 41.7486 45.3686 41.7052 45.1516 41.6184C44.0664 41.3145 43.3284 40.4897 42.9377 39.2309C42.7207 38.4929 42.6772 37.5379 42.8075 36.4092C42.8509 35.8015 42.9811 35.1504 43.1548 34.4558C43.285 33.9349 43.4152 33.4574 43.5454 33.0233C43.9361 31.721 44.4136 30.766 45.0214 30.1148C45.8896 29.1598 46.9748 28.7257 48.1469 28.856C49.3623 28.9862 50.2739 29.7242 50.708 30.9396C51.0987 31.8946 51.0987 33.2403 50.708 35.0201Z" fill="white"/>
<path d="M15.6328 26.3388C15.5894 26.252 15.5025 26.1652 15.4591 26.1652C15.3289 26.1218 15.1987 26.1218 15.0684 26.1652C15.025 26.1652 15.025 26.1652 14.9816 26.2086C14.808 26.252 14.6343 26.3822 14.4173 26.5125C14.2437 26.5993 14.1134 26.6861 14.0266 26.6861H13.9832C13.9398 26.6861 13.8964 26.6427 13.8964 26.5993C13.853 26.4691 13.9832 26.2954 14.2002 26.0784C14.4607 25.8613 14.7212 25.7311 15.025 25.6443L15.0684 25.3404L15.1553 24.5156C15.1118 24.5156 14.9382 24.559 14.5909 24.7327C14.3305 24.9063 14.0266 25.1234 13.6793 25.4706C13.2018 26.035 13.0716 26.5559 13.0282 26.6861C12.9848 26.9466 12.9414 27.1636 12.9848 27.3807C13.0282 27.5977 13.115 27.9016 13.4623 27.9016C13.5057 27.9016 13.5925 27.9016 13.6359 27.8582C13.853 27.7713 14.1134 27.6411 14.3305 27.5543C14.4607 27.5109 14.5475 27.4675 14.5909 27.4675C14.5909 27.4675 14.6343 27.4675 14.6778 27.4675C14.7212 27.4675 14.7212 27.5109 14.7212 27.5977C14.7212 27.6845 14.6343 27.8148 14.5909 27.8582C14.07 28.3791 13.5491 28.4225 13.4189 28.4659L13.2886 29.5511C13.2886 29.5511 13.4623 29.5946 13.853 29.4209C14.07 29.3341 14.3305 29.1605 14.5475 28.9868C14.5909 28.9434 14.9816 28.6829 15.2421 28.2489C15.4157 27.9884 15.5459 27.6845 15.6328 27.4241C15.6762 27.1636 15.7196 26.9032 15.6762 26.6427C15.7196 26.5559 15.6762 26.4257 15.6328 26.3388Z" fill="white"/>
<path d="M21.8839 19.6963L21.1026 21.78L20.2344 20.6513L18.8887 21.4761L19.4964 22.3009L20.408 23.5164L20.4948 25.2093L21.8839 24.5582L21.7971 22.8218L23.273 18.8281L21.8839 19.6963Z" fill="white"/>
<path d="M28.6128 19.7426C28.6128 19.6992 28.6128 19.6992 28.6128 19.7426C28.5694 19.6992 28.5694 19.6992 28.6128 19.7426C28.5694 19.6992 28.5694 19.6992 28.5694 19.6992C28.5694 19.6558 28.5259 19.6558 28.5259 19.6558L28.4825 19.6124C28.3523 19.4822 28.1787 19.4388 28.005 19.3953C27.9616 19.3953 27.9616 19.3953 27.9182 19.3953C27.8748 19.3953 27.8748 19.3953 27.8314 19.3953H27.7446C28.005 19.1783 28.1787 18.9178 28.3523 18.6574C28.4825 18.3969 28.5694 18.1365 28.5694 17.876C28.5694 17.4419 28.3957 17.138 28.0484 17.0512C27.9616 17.0512 27.8748 17.0078 27.788 17.0078C27.4407 17.0078 27.0066 17.138 26.4423 17.3985L24.402 18.3969L23.8811 18.6574L23.8377 19.9597L23.7509 21.8697L23.6641 23.8231L26.3989 22.8247C27.1368 22.5642 27.7012 22.217 28.0918 21.7829C28.1787 21.6961 28.2221 21.6092 28.3089 21.5224C28.3523 21.4356 28.4391 21.3488 28.4825 21.3054C28.6562 21.0015 28.743 20.6976 28.7864 20.3938C28.7864 20.1767 28.743 20.0031 28.6996 19.8728C28.6128 19.786 28.6128 19.7426 28.6128 19.7426ZM25.357 19.0915C25.357 19.0915 26.2252 18.7008 26.2686 18.7008C26.4857 18.614 26.6159 18.614 26.6593 18.7008C26.7027 18.7442 26.7027 18.7876 26.7027 18.8744C26.7027 19.1349 26.4857 19.3519 26.1384 19.5256L25.357 19.8728V19.0915ZM26.2686 21.5224L25.9648 21.6526L25.2702 21.9131L25.3136 21.0883L26.3121 20.6542C26.4423 20.6108 26.5725 20.5674 26.6593 20.5674C26.833 20.5674 26.8764 20.6542 26.8764 20.8713C26.8764 21.1317 26.6593 21.3488 26.2686 21.5224Z" fill="white"/>
<path d="M17.4117 25.8166L18.6706 22.5609L18.2365 21.9531L15.7188 23.7763L15.8056 24.8182L17.2381 23.8197L16.0226 26.9452L16.1094 27.77L19.2349 25.86L19.0613 24.7313L17.4117 25.8166Z" fill="white"/>
<path d="M50.1005 11.4921L50.8385 9.19141L42.5038 11.3185L41.4186 15.0951L40.2031 19.219L48.1905 18.0904L48.9285 15.8765L43.8061 16.7013L44.11 15.6594L48.451 14.8347L48.7982 13.6192L49.1021 12.7076L44.7177 13.6192L45.0216 12.6642L50.1005 11.4921Z" fill="white"/>
<path d="M38.1189 12.708L37.381 16.2242L36.5996 19.8272L39.2476 19.3497L40.1158 15.4428L40.8972 11.8398L38.1189 12.708Z" fill="white"/>
<path d="M36.9042 13.0117L34.2562 14.0101L31.7385 17.1356L32.0423 14.8349L30.0455 15.6163L29.2207 21.6936L31.2175 21.1727L31.4346 19.61L31.9989 18.9154L33.3446 20.6084L36.2097 19.9139L33.6485 17.0054L36.9042 13.0117Z" fill="white"/>
<path d="M51.099 20.4774C50.3176 21.0852 46.7581 23.9068 46.7581 23.9068C36.3832 22.8215 21.7975 24.4711 8.08008 37.0165C15.8504 27.2493 32.4329 18.9581 51.099 20.4774Z" fill="white"/>
<path d="M68.7651 28.4244C68.0271 28.3375 61.8195 27.7298 59.7359 27.5127C59.6056 27.5127 59.4754 27.5128 59.3886 27.643C58.2165 28.9453 55.2213 32.2878 55.0476 32.4614C55.0042 32.3746 53.8321 26.7314 53.7453 26.3407C53.7019 26.2539 53.7019 26.1671 53.5717 26.1236C52.0523 25.5159 49.1439 24.3873 49.0137 24.3004C49.0571 24.257 51.7919 22.347 53.2678 21.2618C53.3112 21.2184 53.3546 21.1749 53.398 21.1315C53.4415 21.0881 53.4415 21.0013 53.4415 21.0013C53.4415 21.0013 53.5283 16.1828 53.5717 15.879C53.6151 15.9658 58.2599 18.3967 58.2599 18.3967C58.2599 18.3967 58.3467 18.4401 58.3902 18.4401C58.477 18.4401 58.5204 18.4401 58.6072 18.3967C60.7777 17.5285 65.8566 15.5317 65.9868 15.4883C65.8132 15.8356 63.9032 20.1765 63.0784 21.9997C63.035 22.13 63.035 22.2168 63.1218 22.3036C63.4257 22.5641 68.2441 27.7732 68.7651 28.4244Z" fill="white"/>
<path d="M20.4513 33.4164C17.3258 34.5016 15.0685 36.2814 14.2003 38.9294C14.2003 38.9294 15.5894 37.1062 17.3692 36.5853C19.8001 35.8907 21.7536 36.8023 22.1877 39.841C22.5784 42.7495 20.7552 45.9184 17.7165 47.047C13.9398 48.4361 11.2919 46.6997 10.8578 43.1835C10.4671 40.4487 11.3353 38.3651 12.681 36.3248C13.8964 34.5016 16.1971 32.1141 21.5799 29.7266L20.4513 33.4164ZM17.1956 44.5292C18.3676 44.1386 19.0622 42.8363 18.932 41.3603C18.8017 40.0146 17.8901 39.103 16.5444 39.4937C15.6328 39.7542 14.9817 40.2751 14.7212 41.3603C14.2437 43.444 15.2855 45.0068 17.1956 44.5292Z" fill="white"/>
<path d="M64.5979 5.63281C64.5111 5.80645 63.556 8.10716 63.122 9.06217C63.0785 9.10558 63.122 9.14899 63.1654 9.23581C63.2956 9.36604 65.5963 11.8404 65.7265 12.0574C65.5529 12.0574 62.4708 12.0574 61.429 12.0574C61.3422 12.0574 61.2987 12.1008 61.2553 12.1443C60.6476 12.8822 59.0414 14.7922 58.9546 14.8791C58.9546 14.8357 58.1733 11.9706 58.1298 11.7536C58.1298 11.7102 58.0864 11.6668 58.043 11.6233C57.1314 11.3629 55.0478 10.7986 54.9609 10.7551C54.9609 10.7551 57.6523 8.97535 57.7392 8.93194C57.7826 8.88854 57.826 8.84512 57.826 8.80172C57.8694 7.97693 57.9562 6.0235 57.9996 5.80645C58.043 5.80645 59.736 6.71805 60.6042 7.19556C60.6476 7.19556 60.6476 7.23897 60.691 7.23897C60.7344 7.23897 60.7344 7.23897 60.7778 7.19556C61.9499 6.71805 64.5545 5.63281 64.5979 5.63281Z" fill="white"/>
</svg>
